<svg width="400" height="400" viewBox="0 0 400 400" fill="none" xmlns="http://www.w3.org/2000/svg">
<g clip-path="url(#clip0_135_211)">
<path fill-rule="evenodd" clip-rule="evenodd" d="M173.2 0.557C173.2 1.34 172.446 1.55 168.689 1.815C163.968 2.149 159.94 2.821 159.007 3.432C158.563 3.722 156.49 4.174 154.4 4.437C152.215 4.711 150.024 5.238 149.246 5.676C148.501 6.095 146.361 6.704 144.491 7.03C142.621 7.356 140.621 7.956 140.046 8.363C139.47 8.77 138.19 9.227 137.2 9.379C134.769 9.753 132.8 10.389 132.8 10.8C132.8 11.179 130.944 11.808 128.741 12.177C127.938 12.311 126.837 12.77 126.295 13.197C125.753 13.623 124.43 14.165 123.355 14.4C122.28 14.635 120.895 15.194 120.278 15.642C119.661 16.09 118.296 16.712 117.244 17.024C116.192 17.336 114.941 17.931 114.464 18.344C113.987 18.758 112.779 19.326 111.781 19.605C110.783 19.885 109.749 20.411 109.483 20.774C109.217 21.137 108.243 21.656 107.318 21.928C106.393 22.199 105.107 22.867 104.46 23.411C103.814 23.955 103.02 24.4 102.697 24.4C102.374 24.4 101.443 24.93 100.628 25.578C99.812 26.226 98.528 26.96 97.773 27.209C97.018 27.458 96.4 27.83 96.4 28.036C96.4 28.242 95.41 28.848 94.2 29.383C92.99 29.918 92 30.525 92 30.732C92 30.939 91.325 31.425 90.5 31.812C89.675 32.199 88.855 32.761 88.678 33.062C88.501 33.362 87.715 33.875 86.932 34.203C86.149 34.53 84.854 35.334 84.054 35.989C80.512 38.893 78.84 40.144 76.688 41.5C76.077 41.885 74.847 42.875 73.955 43.7C73.063 44.525 72.168 45.2 71.966 45.2C71.765 45.2 71.6 45.47 71.6 45.8C71.6 46.13 71.415 46.4 71.189 46.4C70.807 46.4 69.596 47.401 66.713 50.1C66.067 50.705 65.434 51.2 65.306 51.2C65.054 51.2 51.847 64.594 50.076 66.646C48.578 68.381 44.822 72.661 43.487 74.155C42.875 74.84 42.017 75.94 41.58 76.6C39.804 79.287 38.802 80.623 35.989 84.054C35.334 84.854 34.53 86.149 34.203 86.932C33.875 87.715 33.362 88.501 33.062 88.678C32.761 88.855 32.199 89.675 31.812 90.5C31.425 91.325 30.939 92 30.732 92C30.525 92 29.918 92.99 29.383 94.2C28.848 95.41 28.262 96.4 28.082 96.4C27.902 96.4 27.418 97.161 27.008 98.091C26.598 99.021 25.926 100.142 25.516 100.583C25.105 101.024 24.659 101.838 24.524 102.392C24.389 102.946 23.86 103.903 23.35 104.518C22.839 105.133 22.199 106.393 21.928 107.318C21.656 108.243 21.137 109.217 20.774 109.483C20.411 109.749 19.885 110.783 19.605 111.781C19.326 112.779 18.758 113.987 18.344 114.464C17.931 114.941 17.336 116.192 17.024 117.244C16.712 118.296 16.09 119.661 15.642 120.278C15.194 120.895 14.635 122.28 14.4 123.355C14.165 124.43 13.623 125.753 13.197 126.295C12.77 126.837 12.311 127.938 12.177 128.741C11.808 130.944 11.179 132.8 10.8 132.8C10.389 132.8 9.753 134.769 9.379 137.2C9.227 138.19 8.77 139.47 8.363 140.046C7.956 140.621 7.356 142.621 7.03 144.491C6.704 146.361 6.095 148.501 5.676 149.246C5.238 150.024 4.711 152.215 4.437 154.4C4.174 156.49 3.722 158.563 3.432 159.007C2.821 159.94 2.149 163.968 1.815 168.689C1.55 172.446 1.34 173.2 0.557 173.2C0.086 173.2 0 177.388 0 200.2C0 223.012 0.086 227.2 0.557 227.2C1.351 227.2 1.61 228.125 1.84 231.782C2.106 236.015 2.796 240.005 3.436 241C3.718 241.44 4.22 243.754 4.55 246.142C4.905 248.705 5.4 250.758 5.758 251.154C6.092 251.523 6.567 253.169 6.813 254.812C7.059 256.456 7.681 258.621 8.194 259.624C8.708 260.627 9.255 262.337 9.41 263.424C9.566 264.511 10.191 266.3 10.8 267.4C11.409 268.5 12.025 270.229 12.169 271.241C12.314 272.254 12.78 273.457 13.207 273.915C13.633 274.373 14.1 275.484 14.244 276.385C14.388 277.286 15.007 278.783 15.62 279.711C16.232 280.64 16.855 282.059 17.005 282.865C17.154 283.671 17.642 284.723 18.088 285.203C18.535 285.682 19.15 286.904 19.455 287.917C19.76 288.93 20.35 290.128 20.767 290.579C21.183 291.031 21.748 292.159 22.021 293.086C22.294 294.013 22.942 295.169 23.459 295.655C23.977 296.142 24.4 296.829 24.4 297.183C24.4 297.537 25.03 298.805 25.8 300C26.57 301.195 27.2 302.372 27.2 302.614C27.2 302.857 27.65 303.447 28.2 303.925C28.75 304.403 29.2 305.123 29.2 305.525C29.2 305.927 29.83 306.992 30.6 307.892C31.37 308.791 32 309.782 32 310.094C32 310.406 32.45 311.083 33 311.6C33.55 312.117 34 312.746 34 312.998C34 313.25 34.588 314.163 35.307 315.028C36.026 315.893 36.867 317.095 37.175 317.7C37.483 318.305 37.955 318.8 38.224 318.8C38.493 318.8 38.823 319.237 38.957 319.772C39.091 320.307 39.432 320.982 39.715 321.272C39.998 321.562 40.762 322.52 41.414 323.4C42.067 324.28 43.005 325.328 43.5 325.729C43.995 326.13 44.4 326.705 44.4 327.006C44.4 327.308 44.781 327.821 45.246 328.147C45.711 328.473 46.429 329.293 46.84 329.97C47.252 330.646 47.857 331.2 48.186 331.2C48.516 331.2 48.892 331.627 49.023 332.149C49.154 332.671 49.697 333.331 50.23 333.616C50.764 333.902 51.2 334.33 51.2 334.568C51.199 335.038 51.477 335.335 57.878 341.693C64.828 348.596 67.669 351.2 68.253 351.2C68.554 351.2 68.8 351.466 68.8 351.791C68.8 352.116 69.295 352.697 69.9 353.084C70.505 353.47 71.461 354.239 72.024 354.793C72.982 355.736 74.096 356.647 77 358.866C77.66 359.37 78.426 360 78.702 360.265C78.979 360.531 79.602 360.874 80.087 361.028C80.573 361.182 81.305 361.734 81.714 362.254C82.123 362.774 82.641 363.2 82.865 363.2C83.09 363.2 84.009 363.83 84.908 364.6C85.808 365.37 86.783 366 87.075 366C87.367 366 87.997 366.45 88.475 367C88.953 367.55 89.556 368 89.816 368C90.075 368 91.078 368.626 92.044 369.39C93.01 370.155 94.28 370.886 94.867 371.014C95.453 371.143 96.036 371.516 96.161 371.843C96.286 372.169 97.066 372.716 97.894 373.057C98.722 373.399 99.973 374.111 100.673 374.639C101.374 375.168 102.215 375.6 102.543 375.6C102.87 375.6 103.647 376.023 104.269 376.541C105.777 377.795 106.976 378.4 107.951 378.4C108.393 378.4 109.008 378.762 109.318 379.204C109.627 379.646 110.817 380.286 111.962 380.626C113.107 380.966 114.392 381.592 114.816 382.016C115.241 382.441 116.317 382.905 117.206 383.047C118.096 383.19 119.447 383.802 120.209 384.407C121.037 385.065 122.356 385.622 123.484 385.792C124.561 385.953 125.866 386.489 126.518 387.038C127.147 387.567 128.071 388 128.571 388C129.835 388 132.02 388.789 133.134 389.648C133.647 390.044 135.138 390.489 136.447 390.637C137.756 390.785 139.226 391.216 139.714 391.595C140.829 392.461 142.819 393.068 145.431 393.337C146.549 393.452 148.079 393.909 148.831 394.353C149.693 394.861 151.607 395.33 154 395.619C156.09 395.871 158.602 396.442 159.582 396.886C160.741 397.412 162.813 397.811 165.505 398.026C171.611 398.515 173.2 398.808 173.2 399.445C173.2 399.913 177.449 400 200.2 400C222.875 400 227.2 399.912 227.2 399.449C227.2 398.842 231.785 398.002 235.116 397.998C237.128 397.995 239.45 397.484 241.4 396.613C242.06 396.318 244.31 395.859 246.4 395.593C248.78 395.29 250.585 394.835 251.229 394.377C251.795 393.975 253.235 393.53 254.429 393.388C257.16 393.064 259.214 392.461 260.042 391.74C260.396 391.432 261.836 390.981 263.242 390.738C264.649 390.495 266.534 389.87 267.43 389.351C268.327 388.831 270.027 388.222 271.209 387.998C272.391 387.774 273.73 387.242 274.184 386.815C274.638 386.389 275.777 385.917 276.716 385.767C277.655 385.617 279.183 385 280.111 384.396C281.04 383.792 282.45 383.182 283.245 383.041C284.04 382.9 285.007 382.434 285.394 382.006C285.782 381.578 287.021 380.959 288.149 380.63C289.277 380.302 290.513 379.665 290.896 379.216C291.279 378.767 291.873 378.4 292.216 378.4C293.029 378.4 295.107 377.318 296.138 376.357C296.585 375.941 297.336 375.6 297.806 375.6C298.276 375.6 299.058 375.177 299.544 374.659C300.03 374.142 301.161 373.477 302.056 373.181C302.952 372.886 303.77 372.423 303.873 372.154C303.976 371.884 305.022 371.194 306.198 370.619C308.092 369.692 308.363 369.403 308.588 368.069C308.846 366.543 308.31 364.4 307.67 364.4C307.477 364.4 306.767 363.512 306.092 362.426C304.293 359.531 302.241 358.951 300.045 360.716C299.193 361.401 298.024 362.079 297.448 362.224C296.872 362.368 295.996 362.914 295.5 363.436C295.005 363.959 294.366 364.389 294.08 364.393C293.32 364.403 291.277 365.523 290.379 366.421C289.95 366.85 289.191 367.2 288.691 367.2C288.191 367.2 287.145 367.726 286.365 368.368C285.586 369.01 284.291 369.659 283.488 369.81C282.685 369.96 281.81 370.347 281.543 370.668C280.858 371.494 279.252 372.247 277.505 372.564C276.673 372.714 275.835 373.161 275.616 373.57C275.36 374.049 274.556 374.402 273.311 374.582C272.26 374.734 270.721 375.323 269.89 375.891C269.06 376.458 267.445 377.07 266.302 377.251C265.159 377.432 263.759 377.923 263.191 378.343C262.623 378.764 261.087 379.323 259.779 379.587C258.47 379.851 256.5 380.487 255.4 381C254.3 381.514 252.053 382.136 250.408 382.382C248.762 382.628 247.052 383.064 246.608 383.351C245.54 384.041 244.092 384.379 240.387 384.802C238.699 384.994 236.287 385.514 235.026 385.957C233.549 386.476 230.719 386.918 227.067 387.2C221.815 387.606 219.005 387.97 214.4 388.844C208.362 389.989 188.995 389.625 182.2 388.239C180.66 387.925 176.747 387.471 173.503 387.231C169.234 386.915 166.764 386.519 164.552 385.797C162.872 385.249 160.81 384.8 159.969 384.8C157.952 384.8 154.413 384.027 153.404 383.366C152.962 383.076 150.992 382.559 149.028 382.216C147.063 381.873 145.16 381.326 144.8 381C144.439 380.674 143.257 380.224 142.172 380C138.174 379.175 137.817 379.061 137.07 378.365C136.651 377.974 135.564 377.54 134.654 377.399C132.388 377.05 130.4 376.404 130.4 376.018C130.4 375.629 128.707 374.95 126.8 374.573C126.03 374.421 124.922 373.895 124.337 373.405C123.753 372.915 122.568 372.401 121.705 372.263C120.841 372.125 119.803 371.645 119.397 371.197C118.991 370.748 117.703 370.103 116.534 369.764C115.366 369.424 114.272 368.914 114.105 368.631C113.69 367.931 112.228 367.2 111.242 367.2C110.797 367.2 110.02 366.773 109.516 366.251C109.012 365.729 107.757 364.989 106.726 364.606C105.695 364.224 104.759 363.671 104.647 363.378C104.534 363.085 103.7 362.623 102.794 362.351C101.887 362.079 100.918 361.533 100.641 361.136C100.363 360.74 99.517 360.157 98.76 359.841C98.003 359.525 97.059 358.908 96.663 358.47C96.267 358.032 95.37 357.439 94.671 357.152C93.972 356.865 93.072 356.219 92.671 355.715C92.27 355.212 91.638 354.8 91.266 354.8C90.894 354.8 90.252 354.35 89.839 353.8C89.426 353.25 88.885 352.8 88.637 352.8C88.207 352.8 85.732 350.955 82.896 348.52C82.178 347.904 81.368 347.325 81.096 347.234C80.823 347.143 80.135 346.603 79.567 346.034C79 345.465 77.405 344.01 76.023 342.8C72.369 339.599 67.012 334.531 64.607 332C63.457 330.79 61.661 328.9 60.615 327.8C59.57 326.7 58.238 325.181 57.657 324.424C57.076 323.667 55.79 322.227 54.8 321.224C53.81 320.221 52.745 318.905 52.432 318.3C52.12 317.695 51.625 317.2 51.332 317.2C51.04 317.2 50.8 316.931 50.8 316.601C50.8 316.272 50.17 315.305 49.4 314.453C48.63 313.6 48 312.733 48 312.524C48 312.316 47.37 311.438 46.6 310.573C45.83 309.708 45.2 308.779 45.2 308.509C45.2 308.239 44.767 307.735 44.238 307.388C43.709 307.042 43.173 306.347 43.047 305.845C42.921 305.343 42.274 304.248 41.609 303.411C40.944 302.575 40.4 301.676 40.4 301.415C40.4 301.153 39.947 300.514 39.393 299.994C38.84 299.474 38.175 298.342 37.917 297.479C37.658 296.617 37.117 295.706 36.713 295.456C36.31 295.205 35.792 294.304 35.562 293.454C35.332 292.604 34.713 291.477 34.187 290.95C33.66 290.423 33.043 289.301 32.815 288.455C32.587 287.61 31.951 286.432 31.4 285.838C30.85 285.245 30.4 284.399 30.4 283.96C30.4 282.986 29.313 280.8 28.83 280.8C28.637 280.8 28.261 279.889 27.994 278.777C27.727 277.664 27.105 276.269 26.61 275.677C26.116 275.084 25.588 273.758 25.436 272.728C25.284 271.699 24.841 270.439 24.453 269.928C23.624 268.84 22.96 267.134 22.637 265.266C22.51 264.533 22.073 263.453 21.666 262.866C21.259 262.28 20.686 260.63 20.392 259.2C20.099 257.77 19.44 255.808 18.929 254.84C18.418 253.873 18 252.42 18 251.613C18 249.887 16.917 246 16.436 246C16.253 246 15.89 244.245 15.63 242.1C15.37 239.955 14.729 236.76 14.207 235C13.591 232.926 13.095 229.759 12.799 226C12.548 222.81 12.066 218.76 11.729 217C10.436 210.251 10.572 190.113 11.964 182.2C12.157 181.1 12.53 177.5 12.792 174.2C13.083 170.522 13.572 167.271 14.054 165.8C14.487 164.48 15.095 161.535 15.406 159.255C15.718 156.975 16.333 154.365 16.774 153.455C17.214 152.544 17.743 150.611 17.949 149.159C18.155 147.707 18.683 145.813 19.123 144.95C19.564 144.087 20.146 142.215 20.417 140.79C20.688 139.366 21.252 137.821 21.671 137.357C22.089 136.894 22.53 135.814 22.649 134.957C22.928 132.958 23.562 131.242 24.453 130.072C24.841 129.561 25.283 128.322 25.433 127.318C25.584 126.315 26.065 125.135 26.503 124.697C26.94 124.26 27.536 123.001 27.826 121.901C28.116 120.801 28.721 119.509 29.171 119.031C29.62 118.553 30.108 117.54 30.255 116.781C30.402 116.021 31.011 114.836 31.608 114.147C32.205 113.458 32.815 112.248 32.963 111.458C33.111 110.669 33.54 109.791 33.916 109.507C34.808 108.833 35.6 107.404 35.6 106.467C35.6 106.059 35.975 105.385 36.433 104.97C36.891 104.555 37.519 103.611 37.828 102.872C38.136 102.133 38.842 100.991 39.395 100.334C39.948 99.676 40.4 98.881 40.4 98.567C40.4 98.252 40.837 97.615 41.371 97.151C41.905 96.686 42.568 95.742 42.844 95.053C43.121 94.364 43.764 93.37 44.274 92.845C44.783 92.32 45.2 91.677 45.2 91.415C45.2 91.154 45.635 90.531 46.166 90.032C46.697 89.533 47.633 88.332 48.245 87.362C48.858 86.393 49.482 85.6 49.631 85.6C49.781 85.6 50.123 85.069 50.392 84.419C50.661 83.77 51.313 82.956 51.84 82.61C52.368 82.264 52.8 81.756 52.8 81.48C52.8 81.204 53.295 80.491 53.9 79.897C54.505 79.302 55.596 78.137 56.325 77.307C57.054 76.478 58.674 74.633 59.925 73.207C63.982 68.583 73.235 59.567 77.379 56.2C78.191 55.54 79.333 54.505 79.917 53.9C80.501 53.295 81.204 52.8 81.48 52.8C81.756 52.8 82.264 52.368 82.61 51.84C82.956 51.313 83.77 50.661 84.419 50.392C85.069 50.123 85.6 49.781 85.6 49.631C85.6 49.482 86.393 48.858 87.362 48.245C88.332 47.633 89.533 46.697 90.032 46.166C90.531 45.635 91.15 45.2 91.408 45.2C91.665 45.2 92.208 44.833 92.613 44.385C93.019 43.937 94.129 43.227 95.08 42.806C96.031 42.385 96.913 41.77 97.04 41.44C97.167 41.109 97.884 40.636 98.634 40.389C99.384 40.141 100.223 39.628 100.499 39.249C100.774 38.87 101.63 38.315 102.4 38.016C103.17 37.717 104.25 37.088 104.8 36.617C105.35 36.147 106.52 35.519 107.4 35.221C108.28 34.924 109.23 34.354 109.511 33.956C109.793 33.558 110.669 33.111 111.458 32.963C112.248 32.815 113.458 32.205 114.147 31.608C114.836 31.011 116.021 30.402 116.781 30.255C117.54 30.108 118.553 29.62 119.031 29.171C119.509 28.721 120.84 28.106 121.987 27.803C123.134 27.501 124.282 26.972 124.536 26.628C124.791 26.284 126.075 25.724 127.388 25.383C128.702 25.043 130.052 24.532 130.388 24.248C131.202 23.561 133.046 22.916 134.957 22.649C135.814 22.53 136.894 22.089 137.357 21.671C137.821 21.252 139.37 20.689 140.8 20.42C142.23 20.15 143.956 19.589 144.635 19.173C145.314 18.756 147.204 18.226 148.835 17.995C150.466 17.764 152.545 17.214 153.455 16.773C154.365 16.333 156.983 15.726 159.273 15.426C161.563 15.125 164.148 14.576 165.018 14.205C166.023 13.776 169.08 13.321 173.4 12.957C177.14 12.642 181.1 12.202 182.2 11.979C188.626 10.679 212.849 10.38 215.78 11.564C216.429 11.826 220.299 12.317 224.38 12.654C229.507 13.077 232.789 13.558 235 14.212C236.76 14.732 239.955 15.37 242.1 15.63C244.245 15.89 246 16.253 246 16.436C246 16.917 249.887 18 251.613 18C252.42 18 253.873 18.418 254.84 18.929C255.808 19.44 257.77 20.099 259.2 20.392C260.63 20.686 262.28 21.259 262.868 21.667C263.455 22.075 264.895 22.589 266.068 22.809C267.24 23.029 268.65 23.536 269.2 23.936C270.364 24.781 272.579 25.6 273.702 25.6C274.132 25.6 274.995 26.03 275.619 26.554C276.243 27.079 277.664 27.727 278.777 27.994C279.889 28.261 280.8 28.637 280.8 28.83C280.8 29.313 282.986 30.4 283.96 30.4C284.399 30.4 285.245 30.851 285.84 31.402C286.435 31.953 287.643 32.62 288.525 32.885C289.407 33.149 290.529 33.766 291.018 34.255C291.508 34.744 292.604 35.332 293.454 35.562C294.304 35.792 295.205 36.31 295.456 36.713C295.706 37.117 296.617 37.658 297.479 37.917C298.342 38.175 299.474 38.84 299.994 39.393C300.514 39.947 301.153 40.4 301.413 40.4C301.674 40.4 302.678 41.028 303.644 41.796C304.61 42.564 305.694 43.194 306.054 43.196C306.414 43.198 307.003 43.65 307.363 44.2C307.724 44.75 308.239 45.2 308.509 45.2C308.779 45.2 309.708 45.83 310.573 46.6C311.438 47.37 312.316 48 312.524 48C312.733 48 313.6 48.63 314.453 49.4C315.305 50.17 316.272 50.8 316.601 50.8C316.931 50.8 317.2 51.04 317.2 51.332C317.2 51.625 317.695 52.12 318.3 52.432C318.905 52.745 319.862 53.45 320.426 54C320.991 54.55 322.572 55.99 323.939 57.2C331.108 63.543 337.45 69.841 341.8 74.936C342.46 75.709 343.92 77.315 345.045 78.506C346.17 79.697 347.16 80.878 347.245 81.131C347.33 81.384 347.904 82.178 348.52 82.896C350.955 85.732 352.8 88.207 352.8 88.637C352.8 88.885 353.25 89.426 353.8 89.839C354.35 90.252 354.8 90.894 354.8 91.266C354.8 91.638 355.212 92.27 355.715 92.671C356.219 93.072 356.865 93.972 357.152 94.671C357.439 95.37 358.032 96.267 358.47 96.663C358.908 97.059 359.525 98.003 359.841 98.76C360.157 99.517 360.758 100.376 361.176 100.668C361.594 100.961 362.056 101.745 362.202 102.41C362.348 103.075 362.87 104.11 363.361 104.71C363.852 105.309 364.495 106.43 364.789 107.2C365.084 107.97 365.747 109.012 366.263 109.516C366.778 110.02 367.2 110.797 367.2 111.242C367.2 112.243 367.934 113.692 368.658 114.119C368.955 114.295 369.393 115.211 369.63 116.154C369.868 117.097 370.501 118.38 371.037 119.004C371.574 119.629 372.126 120.845 372.263 121.707C372.401 122.569 372.932 123.771 373.443 124.378C373.954 124.985 374.493 126.24 374.641 127.166C374.789 128.093 375.35 129.498 375.886 130.289C376.423 131.08 377.045 132.762 377.268 134.027C377.49 135.292 377.988 136.666 378.374 137.08C379.061 137.817 379.175 138.176 380 142.172C380.224 143.257 380.674 144.439 381 144.8C381.326 145.16 381.873 147.063 382.216 149.028C382.559 150.992 383.076 152.962 383.366 153.404C384.037 154.429 384.8 157.963 384.8 160.049C384.8 160.935 385.245 162.986 385.79 164.608C386.492 166.698 386.903 169.163 387.202 173.078C387.654 178.994 388.062 182.265 388.863 186.4C389.774 191.106 389.543 210.401 388.503 216.4C388.026 219.15 387.442 223.92 387.204 227C386.898 230.967 386.485 233.459 385.786 235.546C385.244 237.166 384.8 239.182 384.8 240.026C384.8 242.053 384.027 245.587 383.361 246.604C383.068 247.05 382.628 248.762 382.382 250.408C382.136 252.053 381.514 254.3 381 255.4C380.487 256.5 379.851 258.47 379.587 259.779C379.323 261.087 378.77 262.617 378.358 263.179C377.946 263.74 377.424 265.184 377.198 266.388C376.972 267.591 376.357 269.211 375.831 269.988C375.304 270.764 374.75 272.174 374.598 273.12C374.447 274.067 374.002 275.147 373.61 275.52C373.218 275.894 372.61 277.203 372.258 278.43C371.906 279.656 371.258 280.986 370.817 281.385C370.376 281.783 369.896 282.76 369.75 283.555C369.604 284.35 369.067 285.501 368.558 286.112C368.048 286.724 367.458 287.852 367.246 288.618C367.034 289.385 366.397 290.563 365.831 291.237C365.264 291.91 364.683 292.943 364.539 293.531C364.396 294.119 363.874 295.012 363.379 295.515C362.884 296.018 362.359 296.908 362.212 297.493C362.066 298.078 361.418 299.158 360.773 299.892C360.128 300.627 359.6 301.464 359.6 301.752C359.6 302.04 359.214 302.619 358.742 303.038C358.27 303.457 357.537 304.576 357.113 305.524C356.689 306.472 356.097 307.341 355.799 307.456C355.5 307.57 355.066 308.145 354.833 308.732C354.601 309.319 353.511 310.88 352.412 312.2C351.312 313.52 350.139 315.088 349.804 315.684C349.202 316.757 348.124 318.051 346.196 320.015C345.648 320.573 345.2 321.191 345.2 321.387C345.2 321.583 344.615 322.307 343.9 322.997C343.185 323.686 341.43 325.572 340 327.188C338.57 328.804 335.842 331.737 333.938 333.707C332.034 335.676 330.407 337.672 330.323 338.143C330.081 339.49 330.387 340.342 331.205 340.602C331.62 340.733 332.076 341.209 332.218 341.658C332.479 342.48 336.09 346.4 336.587 346.4C337.613 346.4 346.4 338.269 346.4 337.32C346.4 337.105 346.855 336.721 347.411 336.468C347.967 336.214 348.541 335.69 348.687 335.303C348.832 334.917 349.412 334.118 349.975 333.53C351.69 331.739 353.736 329.423 355 327.842C355.66 327.016 356.57 325.949 357.023 325.47C358.402 324.01 361.2 320.152 361.2 319.709C361.2 319.48 361.65 318.997 362.2 318.637C362.75 318.276 363.2 317.716 363.2 317.392C363.2 317.067 363.83 316.134 364.6 315.318C365.37 314.501 366 313.609 366 313.335C366 313.061 366.411 312.423 366.913 311.918C367.415 311.413 368.067 310.415 368.362 309.7C368.656 308.985 369.042 308.4 369.219 308.4C369.396 308.4 370.026 307.41 370.618 306.2C371.21 304.99 371.844 304 372.028 304C372.212 304 372.74 303.147 373.201 302.105C373.662 301.063 374.367 299.848 374.767 299.405C375.167 298.962 375.609 298.118 375.748 297.528C375.887 296.938 376.248 296.21 376.549 295.908C377.306 295.151 378.4 292.969 378.4 292.216C378.4 291.873 378.767 291.279 379.216 290.896C379.665 290.513 380.302 289.277 380.63 288.149C380.959 287.021 381.578 285.782 382.006 285.394C382.434 285.007 382.9 284.04 383.041 283.245C383.182 282.45 383.795 281.035 384.403 280.1C385.012 279.165 385.628 277.611 385.772 276.646C385.917 275.681 386.384 274.577 386.81 274.191C387.236 273.806 387.693 272.84 387.826 272.045C388.198 269.816 388.857 267.899 389.627 266.8C390.013 266.25 390.52 264.649 390.754 263.242C390.989 261.836 391.432 260.396 391.74 260.042C392.47 259.203 393.074 257.115 393.347 254.486C393.467 253.323 393.913 251.883 394.337 251.286C394.84 250.577 395.277 248.879 395.593 246.4C395.859 244.31 396.318 242.06 396.613 241.4C397.484 239.45 397.995 237.128 397.998 235.116C398.002 231.785 398.842 227.2 399.449 227.2C399.912 227.2 400 222.875 400 200.2C400 177.593 399.911 173.2 399.451 173.2C398.917 173.2 398.345 169.761 397.849 163.554C397.75 162.318 397.311 160.518 396.873 159.554C396.436 158.589 395.875 156.09 395.627 154C395.325 151.452 394.923 149.852 394.408 149.142C393.985 148.561 393.523 147.121 393.381 145.942C393.003 142.81 392.417 140.748 391.615 139.728C391.225 139.233 390.785 137.756 390.637 136.447C390.489 135.138 390.044 133.647 389.648 133.134C388.789 132.02 388 129.835 388 128.571C388 128.071 387.567 127.147 387.038 126.518C386.489 125.866 385.953 124.561 385.792 123.484C385.622 122.356 385.065 121.037 384.407 120.209C383.802 119.447 383.19 118.096 383.047 117.206C382.905 116.317 382.453 115.253 382.043 114.843C381.632 114.432 380.997 113.196 380.632 112.095C380.266 110.995 379.614 109.775 379.183 109.385C378.753 108.995 378.4 108.332 378.4 107.912C378.4 106.974 377.78 105.76 376.541 104.269C376.023 103.647 375.6 102.854 375.6 102.507C375.6 102.16 375.166 101.307 374.637 100.612C374.107 99.918 373.395 98.683 373.055 97.869C372.714 97.055 372.169 96.286 371.843 96.161C371.516 96.036 371.143 95.453 371.014 94.867C370.886 94.28 370.155 93.01 369.39 92.044C368.626 91.078 368 90.075 368 89.816C368 89.556 367.55 88.953 367 88.475C366.45 87.997 366 87.367 366 87.075C366 86.783 365.37 85.808 364.6 84.908C363.83 84.009 363.2 83.09 363.2 82.865C363.2 82.641 362.75 82.104 362.2 81.671C361.65 81.239 361.2 80.726 361.2 80.532C361.2 79.973 356.493 73.739 354.775 72.024C354.212 71.461 353.632 70.683 353.487 70.297C353.341 69.91 352.781 69.392 352.242 69.146C351.703 68.901 351.163 68.305 351.042 67.823C350.921 67.341 350.367 66.703 349.811 66.406C349.255 66.108 348.8 65.67 348.8 65.433C348.8 65.195 348.246 64.46 347.569 63.8C346.893 63.14 344.328 60.566 341.869 58.079C335.316 51.451 335.046 51.199 334.5 51.2C334.225 51.2 334 51.007 334 50.771C334 50.161 333.111 49.353 332.081 49.026C331.597 48.872 331.2 48.486 331.2 48.167C331.2 47.849 330.646 47.252 329.97 46.84C329.293 46.429 328.473 45.711 328.147 45.246C327.821 44.781 327.308 44.4 327.006 44.4C326.705 44.4 326.13 43.983 325.729 43.474C325.328 42.965 324.46 42.208 323.8 41.792C323.14 41.376 322.009 40.532 321.286 39.918C320.563 39.303 319.708 38.8 319.386 38.8C319.064 38.8 318.8 38.56 318.8 38.268C318.8 37.975 318.305 37.483 317.7 37.175C317.095 36.867 315.893 36.026 315.028 35.307C314.163 34.588 313.25 34 312.998 34C312.746 34 312.117 33.55 311.6 33C311.083 32.45 310.406 32 310.094 32C309.782 32 308.791 31.37 307.892 30.6C306.992 29.83 305.936 29.2 305.544 29.2C305.153 29.2 304.42 28.778 303.916 28.263C303.412 27.747 302.37 27.082 301.6 26.785C300.83 26.487 299.919 25.931 299.576 25.549C299.233 25.166 298.423 24.728 297.776 24.575C297.129 24.422 296.15 23.892 295.6 23.397C295.05 22.902 293.88 22.273 293 21.999C292.12 21.725 291.031 21.166 290.579 20.755C290.128 20.345 288.93 19.76 287.917 19.455C286.904 19.15 285.682 18.535 285.203 18.088C284.723 17.642 283.671 17.154 282.865 17.005C282.059 16.855 280.64 16.232 279.711 15.62C278.783 15.007 277.286 14.388 276.385 14.244C275.484 14.1 274.373 13.633 273.915 13.207C273.457 12.78 272.254 12.314 271.241 12.169C270.229 12.025 268.5 11.407 267.4 10.795C266.3 10.183 264.458 9.557 263.308 9.405C262.157 9.252 260.783 8.787 260.255 8.372C259.681 7.92 257.787 7.357 255.547 6.973C253.486 6.62 251.504 6.065 251.142 5.741C250.766 5.405 248.617 4.893 246.142 4.55C243.754 4.22 241.44 3.718 241 3.436C240.005 2.796 236.015 2.106 231.782 1.84C228.125 1.61 227.2 1.351 227.2 0.557C227.2 0.086 223.012 0 200.2 0C177.388 0 173.2 0.086 173.2 0.557ZM183.4 39.568C180.769 39.744 177.898 40.212 176.258 40.732C174.75 41.209 172.77 41.601 171.858 41.603C169.191 41.608 165.128 42.378 163.4 43.205C162.52 43.627 160.72 44.083 159.4 44.218C156.855 44.48 154.986 45.029 154 45.803C153.67 46.063 152.1 46.499 150.51 46.772C148.921 47.045 147.21 47.592 146.709 47.986C146.208 48.38 144.775 48.915 143.523 49.174C142.272 49.434 140.805 49.995 140.264 50.421C139.722 50.847 138.375 51.405 137.269 51.66C136.164 51.915 134.768 52.546 134.167 53.062C133.567 53.578 132.752 54 132.357 54C131.314 54 129.479 54.881 128.902 55.658C128.628 56.027 127.711 56.446 126.864 56.589C125.998 56.736 124.762 57.363 124.037 58.025C123.33 58.671 122.426 59.2 122.03 59.2C121.634 59.2 120.631 59.74 119.8 60.4C118.969 61.06 118.069 61.6 117.8 61.6C117.531 61.6 116.631 62.14 115.8 62.8C114.969 63.46 114.062 64 113.783 64C113.504 64 112.547 64.585 111.657 65.3C109.716 66.859 107.921 68.072 105.913 69.181C105.096 69.633 104.234 70.362 103.999 70.801C103.764 71.241 103.321 71.6 103.015 71.6C102.709 71.6 102.127 72.021 101.721 72.536C101.316 73.052 100.538 73.708 99.992 73.996C99.447 74.284 98.64 74.853 98.2 75.261C97.76 75.67 95.78 77.39 93.8 79.083C89.111 83.095 83.358 88.849 79.285 93.6C77.494 95.69 75.688 97.76 75.274 98.2C74.859 98.64 74.284 99.447 73.996 99.992C73.708 100.538 73.052 101.316 72.536 101.721C72.021 102.127 71.6 102.709 71.6 103.015C71.6 103.321 71.251 103.759 70.824 103.987C70.398 104.215 69.559 105.302 68.961 106.401C68.362 107.5 67.734 108.4 67.563 108.4C67.393 108.4 67.141 108.756 67.003 109.191C66.865 109.626 66.133 110.723 65.376 111.629C64.619 112.535 64 113.504 64 113.783C64 114.062 63.46 114.969 62.8 115.8C62.14 116.631 61.6 117.531 61.6 117.8C61.6 118.069 61.06 118.969 60.4 119.8C59.74 120.631 59.2 121.634 59.2 122.03C59.2 122.426 58.671 123.33 58.025 124.037C57.363 124.762 56.736 125.998 56.589 126.864C56.446 127.711 56.027 128.628 55.658 128.902C54.881 129.479 54 131.314 54 132.357C54 132.752 53.578 133.567 53.062 134.167C52.546 134.768 51.918 136.15 51.667 137.239C51.415 138.328 50.849 139.71 50.408 140.31C49.968 140.909 49.392 142.479 49.129 143.797C48.866 145.115 48.342 146.525 47.964 146.931C47.587 147.336 47.052 148.863 46.776 150.325C46.5 151.787 45.876 153.797 45.388 154.792C44.9 155.786 44.386 157.766 44.247 159.191C44.107 160.617 43.631 162.507 43.189 163.391C42.714 164.343 42.216 166.551 41.969 168.8C41.74 170.89 41.068 174.67 40.476 177.2L39.4 181.8L39.425 200.4C39.448 216.947 39.529 219.287 40.163 221.6C41.016 224.713 41.425 227.015 41.97 231.754C42.195 233.709 42.624 235.689 42.924 236.154C43.626 237.244 44.4 240.371 44.4 242.118C44.4 242.867 44.817 244.273 45.326 245.24C45.835 246.208 46.479 248.289 46.756 249.865C47.072 251.661 47.541 252.985 48.013 253.411C48.429 253.789 48.882 254.919 49.028 255.946C49.306 257.9 50.29 260.4 50.782 260.4C50.941 260.4 51.306 261.373 51.591 262.562C51.876 263.751 52.512 265.193 53.004 265.766C53.496 266.338 54.016 267.537 54.158 268.431C54.302 269.325 54.841 270.477 55.358 270.995C55.876 271.512 56.416 272.561 56.56 273.325C56.703 274.09 57.356 275.389 58.01 276.213C58.665 277.036 59.2 278.047 59.2 278.459C59.2 278.87 59.729 279.761 60.376 280.437C61.022 281.114 61.669 282.205 61.813 282.861C61.958 283.517 62.333 284.153 62.648 284.274C62.963 284.395 63.671 285.445 64.221 286.608C64.771 287.771 65.487 288.824 65.811 288.949C66.135 289.073 66.4 289.444 66.4 289.774C66.4 290.103 66.915 290.963 67.545 291.686C68.174 292.409 68.99 293.587 69.357 294.304C69.725 295.022 70.38 295.83 70.813 296.101C71.246 296.371 71.6 296.812 71.6 297.08C71.6 297.348 72.052 298.07 72.605 298.684C73.737 299.941 75.914 302.579 78 305.224C78.77 306.2 79.985 307.581 80.7 308.292C81.415 309.004 82 309.739 82 309.925C82 310.112 82.45 310.506 83 310.8C83.55 311.094 84 311.455 84 311.602C84 311.859 86.756 314.731 88.262 316.043C88.668 316.396 89.293 317.026 89.652 317.443C90.457 318.379 92.88 320.544 95.198 322.4C96.16 323.17 97.611 324.385 98.422 325.1C99.233 325.815 100.079 326.4 100.302 326.4C100.526 326.4 101.003 326.85 101.363 327.4C101.724 327.95 102.262 328.4 102.56 328.4C102.858 328.4 103.349 328.7 103.651 329.066C104.19 329.721 107.072 331.746 109.93 333.479C110.728 333.963 111.566 334.612 111.792 334.921C112.018 335.23 112.608 335.612 113.104 335.769C113.599 335.927 114.51 336.481 115.129 337.002C115.747 337.522 116.993 338.244 117.896 338.605C118.799 338.966 119.63 339.5 119.741 339.791C119.853 340.082 120.632 340.544 121.472 340.818C122.312 341.092 123.478 341.714 124.063 342.201C124.648 342.688 125.953 343.295 126.963 343.549C127.973 343.803 128.8 344.184 128.8 344.395C128.8 344.906 130.667 345.822 132.364 346.146C133.115 346.289 133.967 346.746 134.258 347.161C134.549 347.577 135.735 348.144 136.894 348.421C138.052 348.698 139.63 349.334 140.4 349.834C141.17 350.334 142.7 350.867 143.8 351.019C144.9 351.171 146.16 351.621 146.6 352.019C147.365 352.711 149.248 353.278 152.5 353.797C153.325 353.929 154 354.194 154 354.387C154 354.878 156.078 355.473 159.6 355.991C161.25 356.234 163.342 356.79 164.249 357.227C165.303 357.735 167.395 358.158 170.049 358.398C172.332 358.605 175.46 359.146 177 359.6C183.55 361.53 216.542 361.397 223.979 359.41C226.057 358.854 228.723 358.4 229.902 358.4C232.284 358.4 235.375 357.737 236.6 356.963C237.04 356.686 238.93 356.24 240.8 355.973C242.67 355.706 244.795 355.153 245.521 354.744C246.248 354.336 248.138 353.732 249.721 353.402C251.305 353.072 253.058 352.464 253.617 352.05C254.177 351.637 255.437 351.169 256.417 351.011C257.398 350.853 258.92 350.309 259.8 349.804C260.68 349.298 262.205 348.667 263.189 348.403C264.173 348.138 265.492 347.489 266.12 346.961C266.748 346.432 267.747 346 268.34 346C268.933 346 270.043 345.487 270.809 344.859C271.574 344.232 272.857 343.597 273.66 343.449C274.463 343.3 275.363 342.884 275.66 342.524C275.957 342.164 277.01 341.514 278 341.078C278.99 340.642 280.309 339.862 280.931 339.343C281.553 338.824 282.318 338.4 282.631 338.4C285.631 338.4 285.112 332.716 281.868 330.051C281.501 329.749 281.2 329.267 281.2 328.98C281.2 328.693 280.75 328.104 280.2 327.671C279.65 327.239 279.2 326.692 279.2 326.456C279.2 326.221 278.693 325.437 278.073 324.714C277.454 323.991 276.539 322.725 276.041 321.9C275.542 321.075 275 320.4 274.835 320.4C274.67 320.4 274.28 319.905 273.968 319.3C273.655 318.695 272.995 317.872 272.5 317.471C272.005 317.07 271.6 316.51 271.6 316.226C271.6 315.941 271.19 315.28 270.688 314.755C270.187 314.23 269.285 313.035 268.683 312.1C268.081 311.165 267.445 310.4 267.268 310.4C267.092 310.4 266.648 309.77 266.281 309C265.913 308.23 265.435 307.6 265.217 307.6C264.999 307.6 264.535 307.047 264.185 306.372C263.836 305.696 262.706 304.059 261.675 302.733C260.644 301.407 259.387 299.701 258.882 298.941C258.377 298.182 257.702 297.46 257.382 297.338C257.062 297.215 256.8 296.864 256.8 296.558C256.8 296.253 256.194 295.327 255.453 294.501C254.712 293.676 253.979 292.59 253.823 292.089C253.667 291.588 253.116 290.902 252.6 290.563C252.083 290.224 251.476 289.419 251.251 288.774C251.026 288.128 250.576 287.6 250.252 287.6C249.927 287.6 249.454 286.97 249.2 286.2C248.946 285.43 248.527 284.797 248.269 284.794C247.998 284.79 248.053 284.624 248.4 284.4C248.767 284.163 256.888 284.01 269.31 284.006L289.62 284L290.017 285.045C290.235 285.619 291.041 286.822 291.807 287.717C292.573 288.612 293.2 289.561 293.2 289.826C293.2 290.091 293.65 290.603 294.2 290.963C294.75 291.324 295.2 291.871 295.2 292.18C295.2 292.489 295.65 293.096 296.2 293.529C296.75 293.961 297.2 294.508 297.2 294.744C297.2 294.979 297.707 295.763 298.327 296.486C298.946 297.209 299.861 298.475 300.359 299.3C300.858 300.125 301.433 300.8 301.639 300.8C301.845 300.8 302.312 301.428 302.679 302.196C303.045 302.964 303.672 303.696 304.072 303.823C304.472 303.95 304.8 304.368 304.8 304.752C304.8 305.135 305.132 305.806 305.539 306.242C306.412 307.179 308.928 310.545 309.908 312.085C311.475 314.55 313.859 314.343 316.493 311.514C318.388 309.48 322.375 304.982 323.443 303.673C323.86 303.163 324.695 302.186 325.3 301.501C325.905 300.816 326.4 300.089 326.4 299.886C326.4 299.682 326.85 299.161 327.4 298.729C327.95 298.296 328.4 297.717 328.4 297.443C328.4 297.169 328.842 296.56 329.383 296.09C329.924 295.62 330.741 294.552 331.199 293.717C332.239 291.824 333.703 289.736 335.003 288.293C335.551 287.684 336.005 286.964 336.011 286.693C336.017 286.422 336.557 285.493 337.211 284.629C337.865 283.765 338.4 282.833 338.4 282.559C338.4 282.286 338.824 281.553 339.343 280.931C339.862 280.309 340.642 278.99 341.078 278C341.514 277.01 342.164 275.957 342.524 275.66C342.884 275.363 343.299 274.463 343.446 273.66C343.594 272.857 344.228 271.609 344.857 270.886C345.547 270.093 346 269.115 346 268.417C346 267.781 346.432 266.748 346.961 266.12C347.489 265.492 348.138 264.173 348.403 263.189C348.667 262.205 349.298 260.68 349.804 259.8C350.309 258.92 350.853 257.398 351.011 256.417C351.169 255.437 351.637 254.177 352.05 253.617C352.464 253.058 353.072 251.305 353.402 249.721C353.732 248.138 354.336 246.248 354.744 245.521C355.153 244.795 355.708 242.67 355.979 240.8C356.249 238.93 356.648 237.185 356.865 236.923C357.551 236.094 358.39 232.287 358.395 229.982C358.398 228.762 358.866 225.972 359.436 223.782C361.395 216.256 361.508 183.5 359.597 177C359.145 175.46 358.605 172.332 358.398 170.049C358.158 167.395 357.735 165.303 357.227 164.249C356.79 163.342 356.234 161.25 355.991 159.6C355.473 156.078 354.878 154 354.387 154C354.194 154 353.929 153.325 353.797 152.5C353.278 149.248 352.711 147.365 352.019 146.6C351.621 146.16 351.171 144.9 351.018 143.8C350.866 142.7 350.324 141.17 349.814 140.4C349.304 139.63 348.669 138.052 348.402 136.894C348.131 135.716 347.584 134.554 347.161 134.258C346.746 133.967 346.289 133.115 346.146 132.364C345.831 130.711 345.061 129.115 344.258 128.448C343.93 128.176 343.546 127.266 343.404 126.426C343.258 125.559 342.734 124.539 342.194 124.07C341.671 123.614 341.043 122.503 340.8 121.6C340.557 120.698 340.111 119.864 339.81 119.749C339.509 119.633 338.966 118.799 338.605 117.896C338.244 116.993 337.522 115.747 337.002 115.129C336.481 114.51 335.927 113.599 335.769 113.104C335.612 112.608 335.23 112.018 334.921 111.792C334.612 111.566 333.963 110.728 333.479 109.93C331.746 107.072 329.721 104.19 329.066 103.651C328.7 103.349 328.4 102.906 328.4 102.666C328.4 102.426 327.933 101.773 327.363 101.215C326.793 100.657 325.484 99.12 324.455 97.8C321.2 93.625 318.743 90.771 317.443 89.652C317.026 89.293 316.396 88.668 316.043 88.262C314.731 86.756 311.859 84 311.602 84C311.455 84 311.094 83.55 310.8 83C310.506 82.45 310.128 82 309.961 82C309.794 82 308.789 81.165 307.729 80.145C305.998 78.48 303.59 76.51 300.463 74.2C299.867 73.76 298.946 72.995 298.415 72.5C297.884 72.005 297.232 71.6 296.967 71.6C296.702 71.6 296.387 71.342 296.266 71.027C296.061 70.494 292.895 68.195 290.43 66.79C289.841 66.454 288.934 65.783 288.414 65.299C287.895 64.815 286.867 64.22 286.132 63.977C285.396 63.735 284.617 63.205 284.4 62.8C284.184 62.396 283.48 61.949 282.837 61.808C282.194 61.667 281.114 61.022 280.437 60.376C279.761 59.729 278.87 59.2 278.459 59.2C278.047 59.2 277.056 58.68 276.256 58.045C275.457 57.409 274.172 56.771 273.401 56.627C272.631 56.482 271.562 55.926 271.027 55.391C270.479 54.842 269.346 54.305 268.431 54.158C267.537 54.016 266.338 53.496 265.766 53.004C265.193 52.512 263.751 51.876 262.562 51.591C261.373 51.306 260.4 50.941 260.4 50.782C260.4 50.304 257.927 49.318 256.004 49.03C255.017 48.881 253.847 48.423 253.404 48.01C252.934 47.572 251.291 47.014 249.447 46.668C247.713 46.343 246.179 45.889 246.038 45.661C245.768 45.224 243.923 44.747 239.6 43.994C238.17 43.745 236.613 43.292 236.14 42.988C235.668 42.684 233.688 42.236 231.74 41.994C226.659 41.361 224.494 40.967 222 40.217C219.512 39.469 191.818 39.003 183.4 39.568ZM85.1 169.852C86.095 170.119 86.342 171.813 85.592 173.216C84.891 174.524 84.382 177.986 84.031 183.832C83.795 187.749 83.442 190.186 82.87 191.832C82.272 193.554 81.887 196.382 81.458 202.2C80.741 211.944 81.116 214.658 83.401 216.263C83.978 216.669 84.97 217.414 85.605 217.919C88.236 220.012 97.59 219.937 99.263 217.81C99.7 217.255 100.311 216.8 100.62 216.8C100.929 216.8 101.487 216.305 101.861 215.7C102.235 215.095 103.025 213.84 103.617 212.912C104.225 211.958 104.814 210.315 104.97 209.138C105.123 207.991 105.582 206.318 105.991 205.419C106.76 203.733 107.587 197.78 107.618 193.716C107.627 192.442 107.913 190.68 108.252 189.8C109.106 187.585 109.462 185.176 109.982 178.085C110.463 171.533 110.813 170.198 112.149 169.839C113.499 169.477 123.342 169.576 123.945 169.958C124.789 170.492 123.733 182.226 122.411 187C122.167 187.88 121.71 191.725 121.395 195.545C121.08 199.366 120.655 202.696 120.451 202.945C120.015 203.478 118.8 209.728 118.8 211.434C118.8 212.079 118.378 213.415 117.863 214.403C117.348 215.391 116.698 217.042 116.419 218.072C116.14 219.101 115.482 220.347 114.956 220.841C114.43 221.335 114 221.948 114 222.202C114 222.81 108.228 228.4 107.6 228.4C107.334 228.4 106.613 228.823 105.998 229.34C105.358 229.879 103.856 230.482 102.478 230.753C101.157 231.013 99.625 231.58 99.075 232.013C97.61 233.165 85.147 233.218 84.323 232.076C83.985 231.607 82.772 231.16 80.89 230.809C78.903 230.44 77.588 229.939 76.748 229.234C74.814 227.61 70 222.713 70 222.371C70 222.201 69.571 221.551 69.046 220.927C66.753 218.203 66.568 199.007 68.777 193C69.187 191.883 69.629 189.234 69.778 187C70.155 181.316 70.755 177.353 71.636 174.713C72.056 173.455 72.4 171.895 72.4 171.246C72.4 170.597 72.625 169.976 72.9 169.865C73.617 169.575 84.027 169.564 85.1 169.852ZM173.764 170.7C174.393 171.195 175.289 171.608 175.754 171.618C177.175 171.647 180.445 172.626 180.745 173.111C180.901 173.363 181.879 173.945 182.918 174.405C183.958 174.865 185.079 175.654 185.41 176.159C185.741 176.664 186.459 177.281 187.006 177.53C187.553 177.779 188 178.253 188 178.582C188 178.912 188.46 179.483 189.023 179.852C189.586 180.221 190.403 181.222 190.84 182.078C191.276 182.933 191.961 183.961 192.362 184.362C192.763 184.763 193.218 185.79 193.374 186.645C193.529 187.5 194.139 189.19 194.728 190.4C195.753 192.506 195.799 192.875 195.8 199V205.4L171.361 205.6C145.514 205.812 145.6 205.805 145.6 207.629C145.6 209.888 146.557 212.53 147.839 213.812C148.587 214.561 149.2 215.331 149.2 215.524C149.2 215.716 149.872 216.217 150.694 216.637C151.516 217.057 152.422 217.618 152.707 217.885C155.117 220.134 168.566 220.027 171.331 217.737C171.953 217.221 172.782 216.8 173.175 216.8C173.567 216.8 174.551 216.35 175.362 215.8C177.135 214.596 177.756 214.556 178.777 215.577C179.204 216.004 180.329 216.585 181.277 216.866C182.225 217.148 183.27 217.686 183.6 218.061C183.93 218.437 185.01 219.008 186 219.329C188.275 220.068 188.89 222.412 187.032 223.258C186.473 223.513 185.91 224.054 185.781 224.46C185.652 224.866 185.104 225.309 184.564 225.445C184.024 225.58 183.361 226.004 183.091 226.386C182.536 227.172 180.33 228.4 179.474 228.4C179.163 228.4 178.428 228.778 177.841 229.239C176.724 230.118 173.054 231.161 170.996 231.186C170.237 231.195 169.608 231.495 169.293 232C168.824 232.751 168.36 232.8 161.659 232.8C155.032 232.8 154.472 232.743 153.8 232C153.402 231.56 152.573 231.2 151.958 231.2C150.329 231.2 146.379 230.104 145.638 229.446C145.287 229.134 144.343 228.609 143.541 228.277C141.547 227.454 135.744 221.47 134.545 219C134.011 217.9 133.323 216.55 133.017 216C130.786 211.99 131.354 194.967 133.841 191.301C134.369 190.524 134.8 189.495 134.8 189.013C134.8 188.532 135.792 186.892 137.005 185.369C138.217 183.846 139.585 182.015 140.044 181.3C140.503 180.585 141.038 180 141.232 180C141.427 180 142.234 179.37 143.027 178.6C143.82 177.83 144.596 177.2 144.751 177.2C144.906 177.2 145.701 176.57 146.518 175.8C147.334 175.03 148.299 174.4 148.663 174.4C149.027 174.4 149.908 173.955 150.621 173.411C151.985 172.371 154.506 171.626 156.718 171.61C157.596 171.603 158.384 171.252 159.077 170.559L160.118 169.519L166.369 169.659C172.131 169.789 172.71 169.87 173.764 170.7ZM226.7 169.852C227.695 170.119 227.942 171.813 227.192 173.216C226.484 174.537 225.984 178.001 225.605 184.2C225.344 188.467 225.04 190.597 224.552 191.575C223.799 193.086 222.833 202.278 222.742 208.8C222.683 213.079 223.258 214.952 225.024 216.224C225.616 216.651 226.612 217.416 227.237 217.924C229.7 219.928 239.31 219.964 240.703 217.975C241.021 217.521 241.704 216.989 242.221 216.792C242.738 216.595 243.461 215.842 243.828 215.117C244.194 214.393 244.828 213.433 245.237 212.984C245.647 212.535 246.241 210.829 246.561 209.184C246.88 207.543 247.464 205.57 247.859 204.8C248.387 203.771 248.668 201.862 248.922 197.6C249.112 194.41 249.535 190.99 249.863 190C250.727 187.393 251.077 184.963 251.582 178.085C252.063 171.533 252.413 170.198 253.749 169.839C255.099 169.477 264.942 169.576 265.545 169.958C266.389 170.492 265.333 182.226 264.011 187C263.767 187.88 263.312 191.704 262.999 195.499C262.686 199.293 262.242 202.748 262.012 203.177C261.501 204.132 260.4 209.75 260.4 211.403C260.4 212.065 259.978 213.415 259.463 214.403C258.948 215.391 258.298 217.042 258.019 218.072C257.74 219.101 257.082 220.347 256.556 220.841C256.03 221.335 255.6 221.948 255.6 222.202C255.6 222.81 249.828 228.4 249.2 228.4C248.934 228.4 248.213 228.823 247.598 229.34C246.958 229.879 245.456 230.482 244.078 230.753C242.757 231.013 241.225 231.58 240.675 232.013C239.21 233.165 226.747 233.218 225.923 232.076C225.586 231.608 224.377 231.161 222.519 230.815C220.382 230.417 219.253 229.959 218.147 229.039C216.133 227.366 211.6 222.745 211.6 222.366C211.6 222.198 211.151 221.527 210.602 220.875C208.661 218.568 208.382 197.795 210.232 193.395C210.914 191.775 211.296 189.183 211.98 181.546C212.189 179.206 212.73 176.197 213.18 174.858C213.631 173.52 214 171.895 214 171.246C214 170.597 214.225 169.976 214.5 169.865C215.217 169.575 225.627 169.564 226.7 169.852ZM315.364 170.7C315.993 171.195 316.889 171.608 317.354 171.618C318.775 171.647 322.045 172.626 322.345 173.111C322.501 173.363 323.342 173.86 324.214 174.216C325.624 174.792 326.371 175.388 329.09 178.112C331.352 180.378 331.975 181.137 332.607 182.4C332.993 183.17 333.542 183.937 333.827 184.105C334.113 184.272 334.633 185.442 334.985 186.705C335.336 187.967 336.023 189.81 336.512 190.8C337.317 192.433 337.4 193.195 337.4 199V205.4L312.961 205.6C287.114 205.812 287.2 205.805 287.2 207.629C287.2 209.888 288.157 212.53 289.439 213.812C290.187 214.561 290.8 215.339 290.8 215.541C290.8 215.743 291.471 216.227 292.29 216.616C293.11 217.005 294.016 217.559 294.304 217.846C296.587 220.13 310.138 220.05 312.931 217.737C313.553 217.221 314.382 216.8 314.775 216.8C315.167 216.8 316.138 216.359 316.932 215.82C318.879 214.499 319.26 214.46 320.279 215.479C320.76 215.96 321.929 216.582 322.877 216.86C323.825 217.138 324.82 217.667 325.09 218.036C325.359 218.404 326.415 218.952 327.437 219.253C330.146 220.051 330.937 222.315 328.813 223.194C328.161 223.465 327.519 224.026 327.387 224.442C327.255 224.858 326.704 225.309 326.164 225.445C325.624 225.58 324.961 226.004 324.691 226.386C324.136 227.172 321.93 228.4 321.074 228.4C320.763 228.4 320.028 228.778 319.441 229.239C318.324 230.118 314.654 231.161 312.596 231.186C311.837 231.195 311.208 231.495 310.893 232C310.424 232.751 309.96 232.8 303.259 232.8C296.632 232.8 296.072 232.743 295.4 232C295.002 231.56 294.173 231.2 293.558 231.2C291.929 231.2 287.979 230.104 287.238 229.446C286.887 229.134 285.943 228.609 285.141 228.277C283.147 227.454 277.344 221.47 276.145 219C275.611 217.9 274.923 216.55 274.617 216C272.386 211.99 272.954 194.967 275.441 191.301C275.969 190.524 276.4 189.504 276.4 189.033C276.4 188.136 279.771 183.382 282.312 180.695C283.296 179.654 286.143 177.2 286.366 177.2C286.513 177.2 287.301 176.57 288.118 175.8C288.934 175.03 289.899 174.4 290.263 174.4C290.627 174.4 291.508 173.955 292.221 173.411C293.585 172.371 296.106 171.626 298.318 171.61C299.196 171.603 299.984 171.252 300.677 170.559L301.718 169.519L307.969 169.659C313.731 169.789 314.31 169.87 315.364 170.7ZM158.6 183.682C157.94 183.913 157.04 184.418 156.6 184.805C156.16 185.192 155.36 185.642 154.822 185.806C151.406 186.846 147.711 191.566 148.768 193.541C149.471 194.853 178.462 194.896 180.125 193.587L181.159 192.775L180.2 191.287C178.867 189.221 175.903 186 175.334 186C175.074 186 174.335 185.557 173.692 185.016C171.676 183.32 162.067 182.471 158.6 183.682ZM300.2 183.682C299.54 183.913 298.64 184.418 298.2 184.805C297.76 185.192 296.96 185.642 296.422 185.806C293.006 186.846 289.311 191.566 290.368 193.541C291.071 194.853 320.062 194.896 321.725 193.587L322.759 192.775L321.8 191.287C320.467 189.221 317.503 186 316.934 186C316.674 186 315.935 185.557 315.292 185.016C313.276 183.32 303.667 182.471 300.2 183.682Z" fill="url(#paint0_linear_135_211)"/>
</g>
<defs>
<linearGradient id="paint0_linear_135_211" x1="0" y1="0" x2="400" y2="400" gradientUnits="userSpaceOnUse">
<stop stop-color="#8088FF"/>
<stop offset="1" stop-color="#FF6EC7"/>
</linearGradient>
<clipPath id="clip0_135_211">
<rect width="400" height="400" fill="white"/>
</clipPath>
</defs>
</svg>
