<svg id="svg" version="1.1" xmlns="http://www.w3.org/2000/svg" xmlns:xlink="http://www.w3.org/1999/xlink" width="400" height="400" viewBox="0, 0, 400,400"><g id="svgg"><path id="path1" d="M173.200 0.557 C 173.200 1.340,172.446 1.550,168.689 1.815 C 163.968 2.149,159.940 2.821,159.007 3.432 C 158.563 3.722,156.490 4.174,154.400 4.437 C 152.215 4.711,150.024 5.238,149.246 5.676 C 148.501 6.095,146.361 6.704,144.491 7.030 C 142.621 7.356,140.621 7.956,140.046 8.363 C 139.470 8.770,138.190 9.227,137.200 9.379 C 134.769 9.753,132.800 10.389,132.800 10.800 C 132.800 11.179,130.944 11.808,128.741 12.177 C 127.938 12.311,126.837 12.770,126.295 13.197 C 125.753 13.623,124.430 14.165,123.355 14.400 C 122.280 14.635,120.895 15.194,120.278 15.642 C 119.661 16.090,118.296 16.712,117.244 17.024 C 116.192 17.336,114.941 17.931,114.464 18.344 C 113.987 18.758,112.779 19.326,111.781 19.605 C 110.783 19.885,109.749 20.411,109.483 20.774 C 109.217 21.137,108.243 21.656,107.318 21.928 C 106.393 22.199,105.107 22.867,104.460 23.411 C 103.814 23.955,103.020 24.400,102.697 24.400 C 102.374 24.400,101.443 24.930,100.628 25.578 C 99.812 26.226,98.528 26.960,97.773 27.209 C 97.018 27.458,96.400 27.830,96.400 28.036 C 96.400 28.242,95.410 28.848,94.200 29.383 C 92.990 29.918,92.000 30.525,92.000 30.732 C 92.000 30.939,91.325 31.425,90.500 31.812 C 89.675 32.199,88.855 32.761,88.678 33.062 C 88.501 33.362,87.715 33.875,86.932 34.203 C 86.149 34.530,84.854 35.334,84.054 35.989 C 80.512 38.893,78.840 40.144,76.688 41.500 C 76.077 41.885,74.847 42.875,73.955 43.700 C 73.063 44.525,72.168 45.200,71.966 45.200 C 71.765 45.200,71.600 45.470,71.600 45.800 C 71.600 46.130,71.415 46.400,71.189 46.400 C 70.807 46.400,69.596 47.401,66.713 50.100 C 66.067 50.705,65.434 51.200,65.306 51.200 C 65.054 51.200,51.847 64.594,50.076 66.646 C 48.578 68.381,44.822 72.661,43.487 74.155 C 42.875 74.840,42.017 75.940,41.580 76.600 C 39.804 79.287,38.802 80.623,35.989 84.054 C 35.334 84.854,34.530 86.149,34.203 86.932 C 33.875 87.715,33.362 88.501,33.062 88.678 C 32.761 88.855,32.199 89.675,31.812 90.500 C 31.425 91.325,30.939 92.000,30.732 92.000 C 30.525 92.000,29.918 92.990,29.383 94.200 C 28.848 95.410,28.262 96.400,28.082 96.400 C 27.902 96.400,27.418 97.161,27.008 98.091 C 26.598 99.021,25.926 100.142,25.516 100.583 C 25.105 101.024,24.659 101.838,24.524 102.392 C 24.389 102.946,23.860 103.903,23.350 104.518 C 22.839 105.133,22.199 106.393,21.928 107.318 C 21.656 108.243,21.137 109.217,20.774 109.483 C 20.411 109.749,19.885 110.783,19.605 111.781 C 19.326 112.779,18.758 113.987,18.344 114.464 C 17.931 114.941,17.336 116.192,17.024 117.244 C 16.712 118.296,16.090 119.661,15.642 120.278 C 15.194 120.895,14.635 122.280,14.400 123.355 C 14.165 124.430,13.623 125.753,13.197 126.295 C 12.770 126.837,12.311 127.938,12.177 128.741 C 11.808 130.944,11.179 132.800,10.800 132.800 C 10.389 132.800,9.753 134.769,9.379 137.200 C 9.227 138.190,8.770 139.470,8.363 140.046 C 7.956 140.621,7.356 142.621,7.030 144.491 C 6.704 146.361,6.095 148.501,5.676 149.246 C 5.238 150.024,4.711 152.215,4.437 154.400 C 4.174 156.490,3.722 158.563,3.432 159.007 C 2.821 159.940,2.149 163.968,1.815 168.689 C 1.550 172.446,1.340 173.200,0.557 173.200 C 0.086 173.200,0.000 177.388,0.000 200.200 C 0.000 223.012,0.086 227.200,0.557 227.200 C 1.351 227.200,1.610 228.125,1.840 231.782 C 2.106 236.015,2.796 240.005,3.436 241.000 C 3.718 241.440,4.220 243.754,4.550 246.142 C 4.905 248.705,5.400 250.758,5.758 251.154 C 6.092 251.523,6.567 253.169,6.813 254.812 C 7.059 256.456,7.681 258.621,8.194 259.624 C 8.708 260.627,9.255 262.337,9.410 263.424 C 9.566 264.511,10.191 266.300,10.800 267.400 C 11.409 268.500,12.025 270.229,12.169 271.241 C 12.314 272.254,12.780 273.457,13.207 273.915 C 13.633 274.373,14.100 275.484,14.244 276.385 C 14.388 277.286,15.007 278.783,15.620 279.711 C 16.232 280.640,16.855 282.059,17.005 282.865 C 17.154 283.671,17.642 284.723,18.088 285.203 C 18.535 285.682,19.150 286.904,19.455 287.917 C 19.760 288.930,20.350 290.128,20.767 290.579 C 21.183 291.031,21.748 292.159,22.021 293.086 C 22.294 294.013,22.942 295.169,23.459 295.655 C 23.977 296.142,24.400 296.829,24.400 297.183 C 24.400 297.537,25.030 298.805,25.800 300.000 C 26.570 301.195,27.200 302.372,27.200 302.614 C 27.200 302.857,27.650 303.447,28.200 303.925 C 28.750 304.403,29.200 305.123,29.200 305.525 C 29.200 305.927,29.830 306.992,30.600 307.892 C 31.370 308.791,32.000 309.782,32.000 310.094 C 32.000 310.406,32.450 311.083,33.000 311.600 C 33.550 312.117,34.000 312.746,34.000 312.998 C 34.000 313.250,34.588 314.163,35.307 315.028 C 36.026 315.893,36.867 317.095,37.175 317.700 C 37.483 318.305,37.955 318.800,38.224 318.800 C 38.493 318.800,38.823 319.237,38.957 319.772 C 39.091 320.307,39.432 320.982,39.715 321.272 C 39.998 321.562,40.762 322.520,41.414 323.400 C 42.067 324.280,43.005 325.328,43.500 325.729 C 43.995 326.130,44.400 326.705,44.400 327.006 C 44.400 327.308,44.781 327.821,45.246 328.147 C 45.711 328.473,46.429 329.293,46.840 329.970 C 47.252 330.646,47.857 331.200,48.186 331.200 C 48.516 331.200,48.892 331.627,49.023 332.149 C 49.154 332.671,49.697 333.331,50.230 333.616 C 50.764 333.902,51.200 334.330,51.200 334.568 C 51.199 335.038,51.477 335.335,57.878 341.693 C 64.828 348.596,67.669 351.200,68.253 351.200 C 68.554 351.200,68.800 351.466,68.800 351.791 C 68.800 352.116,69.295 352.697,69.900 353.084 C 70.505 353.470,71.461 354.239,72.024 354.793 C 72.982 355.736,74.096 356.647,77.000 358.866 C 77.660 359.370,78.426 360.000,78.702 360.265 C 78.979 360.531,79.602 360.874,80.087 361.028 C 80.573 361.182,81.305 361.734,81.714 362.254 C 82.123 362.774,82.641 363.200,82.865 363.200 C 83.090 363.200,84.009 363.830,84.908 364.600 C 85.808 365.370,86.783 366.000,87.075 366.000 C 87.367 366.000,87.997 366.450,88.475 367.000 C 88.953 367.550,89.556 368.000,89.816 368.000 C 90.075 368.000,91.078 368.626,92.044 369.390 C 93.010 370.155,94.280 370.886,94.867 371.014 C 95.453 371.143,96.036 371.516,96.161 371.843 C 96.286 372.169,97.066 372.716,97.894 373.057 C 98.722 373.399,99.973 374.111,100.673 374.639 C 101.374 375.168,102.215 375.600,102.543 375.600 C 102.870 375.600,103.647 376.023,104.269 376.541 C 105.777 377.795,106.976 378.400,107.951 378.400 C 108.393 378.400,109.008 378.762,109.318 379.204 C 109.627 379.646,110.817 380.286,111.962 380.626 C 113.107 380.966,114.392 381.592,114.816 382.016 C 115.241 382.441,116.317 382.905,117.206 383.047 C 118.096 383.190,119.447 383.802,120.209 384.407 C 121.037 385.065,122.356 385.622,123.484 385.792 C 124.561 385.953,125.866 386.489,126.518 387.038 C 127.147 387.567,128.071 388.000,128.571 388.000 C 129.835 388.000,132.020 388.789,133.134 389.648 C 133.647 390.044,135.138 390.489,136.447 390.637 C 137.756 390.785,139.226 391.216,139.714 391.595 C 140.829 392.461,142.819 393.068,145.431 393.337 C 146.549 393.452,148.079 393.909,148.831 394.353 C 149.693 394.861,151.607 395.330,154.000 395.619 C 156.090 395.871,158.602 396.442,159.582 396.886 C 160.741 397.412,162.813 397.811,165.505 398.026 C 171.611 398.515,173.200 398.808,173.200 399.445 C 173.200 399.913,177.449 400.000,200.200 400.000 C 222.875 400.000,227.200 399.912,227.200 399.449 C 227.200 398.842,231.785 398.002,235.116 397.998 C 237.128 397.995,239.450 397.484,241.400 396.613 C 242.060 396.318,244.310 395.859,246.400 395.593 C 248.780 395.290,250.585 394.835,251.229 394.377 C 251.795 393.975,253.235 393.530,254.429 393.388 C 257.160 393.064,259.214 392.461,260.042 391.740 C 260.396 391.432,261.836 390.981,263.242 390.738 C 264.649 390.495,266.534 389.870,267.430 389.351 C 268.327 388.831,270.027 388.222,271.209 387.998 C 272.391 387.774,273.730 387.242,274.184 386.815 C 274.638 386.389,275.777 385.917,276.716 385.767 C 277.655 385.617,279.183 385.000,280.111 384.396 C 281.040 383.792,282.450 383.182,283.245 383.041 C 284.040 382.900,285.007 382.434,285.394 382.006 C 285.782 381.578,287.021 380.959,288.149 380.630 C 289.277 380.302,290.513 379.665,290.896 379.216 C 291.279 378.767,291.873 378.400,292.216 378.400 C 293.029 378.400,295.107 377.318,296.138 376.357 C 296.585 375.941,297.336 375.600,297.806 375.600 C 298.276 375.600,299.058 375.177,299.544 374.659 C 300.030 374.142,301.161 373.477,302.056 373.181 C 302.952 372.886,303.770 372.423,303.873 372.154 C 303.976 371.884,305.022 371.194,306.198 370.619 C 308.092 369.692,308.363 369.403,308.588 368.069 C 308.846 366.543,308.310 364.400,307.670 364.400 C 307.477 364.400,306.767 363.512,306.092 362.426 C 304.293 359.531,302.241 358.951,300.045 360.716 C 299.193 361.401,298.024 362.079,297.448 362.224 C 296.872 362.368,295.996 362.914,295.500 363.436 C 295.005 363.959,294.366 364.389,294.080 364.393 C 293.320 364.403,291.277 365.523,290.379 366.421 C 289.950 366.850,289.191 367.200,288.691 367.200 C 288.191 367.200,287.145 367.726,286.365 368.368 C 285.586 369.010,284.291 369.659,283.488 369.810 C 282.685 369.960,281.810 370.347,281.543 370.668 C 280.858 371.494,279.252 372.247,277.505 372.564 C 276.673 372.714,275.835 373.161,275.616 373.570 C 275.360 374.049,274.556 374.402,273.311 374.582 C 272.260 374.734,270.721 375.323,269.890 375.891 C 269.060 376.458,267.445 377.070,266.302 377.251 C 265.159 377.432,263.759 377.923,263.191 378.343 C 262.623 378.764,261.087 379.323,259.779 379.587 C 258.470 379.851,256.500 380.487,255.400 381.000 C 254.300 381.514,252.053 382.136,250.408 382.382 C 248.762 382.628,247.052 383.064,246.608 383.351 C 245.540 384.041,244.092 384.379,240.387 384.802 C 238.699 384.994,236.287 385.514,235.026 385.957 C 233.549 386.476,230.719 386.918,227.067 387.200 C 221.815 387.606,219.005 387.970,214.400 388.844 C 208.362 389.989,188.995 389.625,182.200 388.239 C 180.660 387.925,176.747 387.471,173.503 387.231 C 169.234 386.915,166.764 386.519,164.552 385.797 C 162.872 385.249,160.810 384.800,159.969 384.800 C 157.952 384.800,154.413 384.027,153.404 383.366 C 152.962 383.076,150.992 382.559,149.028 382.216 C 147.063 381.873,145.160 381.326,144.800 381.000 C 144.439 380.674,143.257 380.224,142.172 380.000 C 138.174 379.175,137.817 379.061,137.070 378.365 C 136.651 377.974,135.564 377.540,134.654 377.399 C 132.388 377.050,130.400 376.404,130.400 376.018 C 130.400 375.629,128.707 374.950,126.800 374.573 C 126.030 374.421,124.922 373.895,124.337 373.405 C 123.753 372.915,122.568 372.401,121.705 372.263 C 120.841 372.125,119.803 371.645,119.397 371.197 C 118.991 370.748,117.703 370.103,116.534 369.764 C 115.366 369.424,114.272 368.914,114.105 368.631 C 113.690 367.931,112.228 367.200,111.242 367.200 C 110.797 367.200,110.020 366.773,109.516 366.251 C 109.012 365.729,107.757 364.989,106.726 364.606 C 105.695 364.224,104.759 363.671,104.647 363.378 C 104.534 363.085,103.700 362.623,102.794 362.351 C 101.887 362.079,100.918 361.533,100.641 361.136 C 100.363 360.740,99.517 360.157,98.760 359.841 C 98.003 359.525,97.059 358.908,96.663 358.470 C 96.267 358.032,95.370 357.439,94.671 357.152 C 93.972 356.865,93.072 356.219,92.671 355.715 C 92.270 355.212,91.638 354.800,91.266 354.800 C 90.894 354.800,90.252 354.350,89.839 353.800 C 89.426 353.250,88.885 352.800,88.637 352.800 C 88.207 352.800,85.732 350.955,82.896 348.520 C 82.178 347.904,81.368 347.325,81.096 347.234 C 80.823 347.143,80.135 346.603,79.567 346.034 C 79.000 345.465,77.405 344.010,76.023 342.800 C 72.369 339.599,67.012 334.531,64.607 332.000 C 63.457 330.790,61.661 328.900,60.615 327.800 C 59.570 326.700,58.238 325.181,57.657 324.424 C 57.076 323.667,55.790 322.227,54.800 321.224 C 53.810 320.221,52.745 318.905,52.432 318.300 C 52.120 317.695,51.625 317.200,51.332 317.200 C 51.040 317.200,50.800 316.931,50.800 316.601 C 50.800 316.272,50.170 315.305,49.400 314.453 C 48.630 313.600,48.000 312.733,48.000 312.524 C 48.000 312.316,47.370 311.438,46.600 310.573 C 45.830 309.708,45.200 308.779,45.200 308.509 C 45.200 308.239,44.767 307.735,44.238 307.388 C 43.709 307.042,43.173 306.347,43.047 305.845 C 42.921 305.343,42.274 304.248,41.609 303.411 C 40.944 302.575,40.400 301.676,40.400 301.415 C 40.400 301.153,39.947 300.514,39.393 299.994 C 38.840 299.474,38.175 298.342,37.917 297.479 C 37.658 296.617,37.117 295.706,36.713 295.456 C 36.310 295.205,35.792 294.304,35.562 293.454 C 35.332 292.604,34.713 291.477,34.187 290.950 C 33.660 290.423,33.043 289.301,32.815 288.455 C 32.587 287.610,31.951 286.432,31.400 285.838 C 30.850 285.245,30.400 284.399,30.400 283.960 C 30.400 282.986,29.313 280.800,28.830 280.800 C 28.637 280.800,28.261 279.889,27.994 278.777 C 27.727 277.664,27.105 276.269,26.610 275.677 C 26.116 275.084,25.588 273.758,25.436 272.728 C 25.284 271.699,24.841 270.439,24.453 269.928 C 23.624 268.840,22.960 267.134,22.637 265.266 C 22.510 264.533,22.073 263.453,21.666 262.866 C 21.259 262.280,20.686 260.630,20.392 259.200 C 20.099 257.770,19.440 255.808,18.929 254.840 C 18.418 253.873,18.000 252.420,18.000 251.613 C 18.000 249.887,16.917 246.000,16.436 246.000 C 16.253 246.000,15.890 244.245,15.630 242.100 C 15.370 239.955,14.729 236.760,14.207 235.000 C 13.591 232.926,13.095 229.759,12.799 226.000 C 12.548 222.810,12.066 218.760,11.729 217.000 C 10.436 210.251,10.572 190.113,11.964 182.200 C 12.157 181.100,12.530 177.500,12.792 174.200 C 13.083 170.522,13.572 167.271,14.054 165.800 C 14.487 164.480,15.095 161.535,15.406 159.255 C 15.718 156.975,16.333 154.365,16.774 153.455 C 17.214 152.544,17.743 150.611,17.949 149.159 C 18.155 147.707,18.683 145.813,19.123 144.950 C 19.564 144.087,20.146 142.215,20.417 140.790 C 20.688 139.366,21.252 137.821,21.671 137.357 C 22.089 136.894,22.530 135.814,22.649 134.957 C 22.928 132.958,23.562 131.242,24.453 130.072 C 24.841 129.561,25.283 128.322,25.433 127.318 C 25.584 126.315,26.065 125.135,26.503 124.697 C 26.940 124.260,27.536 123.001,27.826 121.901 C 28.116 120.801,28.721 119.509,29.171 119.031 C 29.620 118.553,30.108 117.540,30.255 116.781 C 30.402 116.021,31.011 114.836,31.608 114.147 C 32.205 113.458,32.815 112.248,32.963 111.458 C 33.111 110.669,33.540 109.791,33.916 109.507 C 34.808 108.833,35.600 107.404,35.600 106.467 C 35.600 106.059,35.975 105.385,36.433 104.970 C 36.891 104.555,37.519 103.611,37.828 102.872 C 38.136 102.133,38.842 100.991,39.395 100.334 C 39.948 99.676,40.400 98.881,40.400 98.567 C 40.400 98.252,40.837 97.615,41.371 97.151 C 41.905 96.686,42.568 95.742,42.844 95.053 C 43.121 94.364,43.764 93.370,44.274 92.845 C 44.783 92.320,45.200 91.677,45.200 91.415 C 45.200 91.154,45.635 90.531,46.166 90.032 C 46.697 89.533,47.633 88.332,48.245 87.362 C 48.858 86.393,49.482 85.600,49.631 85.600 C 49.781 85.600,50.123 85.069,50.392 84.419 C 50.661 83.770,51.313 82.956,51.840 82.610 C 52.368 82.264,52.800 81.756,52.800 81.480 C 52.800 81.204,53.295 80.491,53.900 79.897 C 54.505 79.302,55.596 78.137,56.325 77.307 C 57.054 76.478,58.674 74.633,59.925 73.207 C 63.982 68.583,73.235 59.567,77.379 56.200 C 78.191 55.540,79.333 54.505,79.917 53.900 C 80.501 53.295,81.204 52.800,81.480 52.800 C 81.756 52.800,82.264 52.368,82.610 51.840 C 82.956 51.313,83.770 50.661,84.419 50.392 C 85.069 50.123,85.600 49.781,85.600 49.631 C 85.600 49.482,86.393 48.858,87.362 48.245 C 88.332 47.633,89.533 46.697,90.032 46.166 C 90.531 45.635,91.150 45.200,91.408 45.200 C 91.665 45.200,92.208 44.833,92.613 44.385 C 93.019 43.937,94.129 43.227,95.080 42.806 C 96.031 42.385,96.913 41.770,97.040 41.440 C 97.167 41.109,97.884 40.636,98.634 40.389 C 99.384 40.141,100.223 39.628,100.499 39.249 C 100.774 38.870,101.630 38.315,102.400 38.016 C 103.170 37.717,104.250 37.088,104.800 36.617 C 105.350 36.147,106.520 35.519,107.400 35.221 C 108.280 34.924,109.230 34.354,109.511 33.956 C 109.793 33.558,110.669 33.111,111.458 32.963 C 112.248 32.815,113.458 32.205,114.147 31.608 C 114.836 31.011,116.021 30.402,116.781 30.255 C 117.540 30.108,118.553 29.620,119.031 29.171 C 119.509 28.721,120.840 28.106,121.987 27.803 C 123.134 27.501,124.282 26.972,124.536 26.628 C 124.791 26.284,126.075 25.724,127.388 25.383 C 128.702 25.043,130.052 24.532,130.388 24.248 C 131.202 23.561,133.046 22.916,134.957 22.649 C 135.814 22.530,136.894 22.089,137.357 21.671 C 137.821 21.252,139.370 20.689,140.800 20.420 C 142.230 20.150,143.956 19.589,144.635 19.173 C 145.314 18.756,147.204 18.226,148.835 17.995 C 150.466 17.764,152.545 17.214,153.455 16.773 C 154.365 16.333,156.983 15.726,159.273 15.426 C 161.563 15.125,164.148 14.576,165.018 14.205 C 166.023 13.776,169.080 13.321,173.400 12.957 C 177.140 12.642,181.100 12.202,182.200 11.979 C 188.626 10.679,212.849 10.380,215.780 11.564 C 216.429 11.826,220.299 12.317,224.380 12.654 C 229.507 13.077,232.789 13.558,235.000 14.212 C 236.760 14.732,239.955 15.370,242.100 15.630 C 244.245 15.890,246.000 16.253,246.000 16.436 C 246.000 16.917,249.887 18.000,251.613 18.000 C 252.420 18.000,253.873 18.418,254.840 18.929 C 255.808 19.440,257.770 20.099,259.200 20.392 C 260.630 20.686,262.280 21.259,262.868 21.667 C 263.455 22.075,264.895 22.589,266.068 22.809 C 267.240 23.029,268.650 23.536,269.200 23.936 C 270.364 24.781,272.579 25.600,273.702 25.600 C 274.132 25.600,274.995 26.030,275.619 26.554 C 276.243 27.079,277.664 27.727,278.777 27.994 C 279.889 28.261,280.800 28.637,280.800 28.830 C 280.800 29.313,282.986 30.400,283.960 30.400 C 284.399 30.400,285.245 30.851,285.840 31.402 C 286.435 31.953,287.643 32.620,288.525 32.885 C 289.407 33.149,290.529 33.766,291.018 34.255 C 291.508 34.744,292.604 35.332,293.454 35.562 C 294.304 35.792,295.205 36.310,295.456 36.713 C 295.706 37.117,296.617 37.658,297.479 37.917 C 298.342 38.175,299.474 38.840,299.994 39.393 C 300.514 39.947,301.153 40.400,301.413 40.400 C 301.674 40.400,302.678 41.028,303.644 41.796 C 304.610 42.564,305.694 43.194,306.054 43.196 C 306.414 43.198,307.003 43.650,307.363 44.200 C 307.724 44.750,308.239 45.200,308.509 45.200 C 308.779 45.200,309.708 45.830,310.573 46.600 C 311.438 47.370,312.316 48.000,312.524 48.000 C 312.733 48.000,313.600 48.630,314.453 49.400 C 315.305 50.170,316.272 50.800,316.601 50.800 C 316.931 50.800,317.200 51.040,317.200 51.332 C 317.200 51.625,317.695 52.120,318.300 52.432 C 318.905 52.745,319.862 53.450,320.426 54.000 C 320.991 54.550,322.572 55.990,323.939 57.200 C 331.108 63.543,337.450 69.841,341.800 74.936 C 342.460 75.709,343.920 77.315,345.045 78.506 C 346.170 79.697,347.160 80.878,347.245 81.131 C 347.330 81.384,347.904 82.178,348.520 82.896 C 350.955 85.732,352.800 88.207,352.800 88.637 C 352.800 88.885,353.250 89.426,353.800 89.839 C 354.350 90.252,354.800 90.894,354.800 91.266 C 354.800 91.638,355.212 92.270,355.715 92.671 C 356.219 93.072,356.865 93.972,357.152 94.671 C 357.439 95.370,358.032 96.267,358.470 96.663 C 358.908 97.059,359.525 98.003,359.841 98.760 C 360.157 99.517,360.758 100.376,361.176 100.668 C 361.594 100.961,362.056 101.745,362.202 102.410 C 362.348 103.075,362.870 104.110,363.361 104.710 C 363.852 105.309,364.495 106.430,364.789 107.200 C 365.084 107.970,365.747 109.012,366.263 109.516 C 366.778 110.020,367.200 110.797,367.200 111.242 C 367.200 112.243,367.934 113.692,368.658 114.119 C 368.955 114.295,369.393 115.211,369.630 116.154 C 369.868 117.097,370.501 118.380,371.037 119.004 C 371.574 119.629,372.126 120.845,372.263 121.707 C 372.401 122.569,372.932 123.771,373.443 124.378 C 373.954 124.985,374.493 126.240,374.641 127.166 C 374.789 128.093,375.350 129.498,375.886 130.289 C 376.423 131.080,377.045 132.762,377.268 134.027 C 377.490 135.292,377.988 136.666,378.374 137.080 C 379.061 137.817,379.175 138.176,380.000 142.172 C 380.224 143.257,380.674 144.439,381.000 144.800 C 381.326 145.160,381.873 147.063,382.216 149.028 C 382.559 150.992,383.076 152.962,383.366 153.404 C 384.037 154.429,384.800 157.963,384.800 160.049 C 384.800 160.935,385.245 162.986,385.790 164.608 C 386.492 166.698,386.903 169.163,387.202 173.078 C 387.654 178.994,388.062 182.265,388.863 186.400 C 389.774 191.106,389.543 210.401,388.503 216.400 C 388.026 219.150,387.442 223.920,387.204 227.000 C 386.898 230.967,386.485 233.459,385.786 235.546 C 385.244 237.166,384.800 239.182,384.800 240.026 C 384.800 242.053,384.027 245.587,383.361 246.604 C 383.068 247.050,382.628 248.762,382.382 250.408 C 382.136 252.053,381.514 254.300,381.000 255.400 C 380.487 256.500,379.851 258.470,379.587 259.779 C 379.323 261.087,378.770 262.617,378.358 263.179 C 377.946 263.740,377.424 265.184,377.198 266.388 C 376.972 267.591,376.357 269.211,375.831 269.988 C 375.304 270.764,374.750 272.174,374.598 273.120 C 374.447 274.067,374.002 275.147,373.610 275.520 C 373.218 275.894,372.610 277.203,372.258 278.430 C 371.906 279.656,371.258 280.986,370.817 281.385 C 370.376 281.783,369.896 282.760,369.750 283.555 C 369.604 284.350,369.067 285.501,368.558 286.112 C 368.048 286.724,367.458 287.852,367.246 288.618 C 367.034 289.385,366.397 290.563,365.831 291.237 C 365.264 291.910,364.683 292.943,364.539 293.531 C 364.396 294.119,363.874 295.012,363.379 295.515 C 362.884 296.018,362.359 296.908,362.212 297.493 C 362.066 298.078,361.418 299.158,360.773 299.892 C 360.128 300.627,359.600 301.464,359.600 301.752 C 359.600 302.040,359.214 302.619,358.742 303.038 C 358.270 303.457,357.537 304.576,357.113 305.524 C 356.689 306.472,356.097 307.341,355.799 307.456 C 355.500 307.570,355.066 308.145,354.833 308.732 C 354.601 309.319,353.511 310.880,352.412 312.200 C 351.312 313.520,350.139 315.088,349.804 315.684 C 349.202 316.757,348.124 318.051,346.196 320.015 C 345.648 320.573,345.200 321.191,345.200 321.387 C 345.200 321.583,344.615 322.307,343.900 322.997 C 343.185 323.686,341.430 325.572,340.000 327.188 C 338.570 328.804,335.842 331.737,333.938 333.707 C 332.034 335.676,330.407 337.672,330.323 338.143 C 330.081 339.490,330.387 340.342,331.205 340.602 C 331.620 340.733,332.076 341.209,332.218 341.658 C 332.479 342.480,336.090 346.400,336.587 346.400 C 337.613 346.400,346.400 338.269,346.400 337.320 C 346.400 337.105,346.855 336.721,347.411 336.468 C 347.967 336.214,348.541 335.690,348.687 335.303 C 348.832 334.917,349.412 334.118,349.975 333.530 C 351.690 331.739,353.736 329.423,355.000 327.842 C 355.660 327.016,356.570 325.949,357.023 325.470 C 358.402 324.010,361.200 320.152,361.200 319.709 C 361.200 319.480,361.650 318.997,362.200 318.637 C 362.750 318.276,363.200 317.716,363.200 317.392 C 363.200 317.067,363.830 316.134,364.600 315.318 C 365.370 314.501,366.000 313.609,366.000 313.335 C 366.000 313.061,366.411 312.423,366.913 311.918 C 367.415 311.413,368.067 310.415,368.362 309.700 C 368.656 308.985,369.042 308.400,369.219 308.400 C 369.396 308.400,370.026 307.410,370.618 306.200 C 371.210 304.990,371.844 304.000,372.028 304.000 C 372.212 304.000,372.740 303.147,373.201 302.105 C 373.662 301.063,374.367 299.848,374.767 299.405 C 375.167 298.962,375.609 298.118,375.748 297.528 C 375.887 296.938,376.248 296.210,376.549 295.908 C 377.306 295.151,378.400 292.969,378.400 292.216 C 378.400 291.873,378.767 291.279,379.216 290.896 C 379.665 290.513,380.302 289.277,380.630 288.149 C 380.959 287.021,381.578 285.782,382.006 285.394 C 382.434 285.007,382.900 284.040,383.041 283.245 C 383.182 282.450,383.795 281.035,384.403 280.100 C 385.012 279.165,385.628 277.611,385.772 276.646 C 385.917 275.681,386.384 274.577,386.810 274.191 C 387.236 273.806,387.693 272.840,387.826 272.045 C 388.198 269.816,388.857 267.899,389.627 266.800 C 390.013 266.250,390.520 264.649,390.754 263.242 C 390.989 261.836,391.432 260.396,391.740 260.042 C 392.470 259.203,393.074 257.115,393.347 254.486 C 393.467 253.323,393.913 251.883,394.337 251.286 C 394.840 250.577,395.277 248.879,395.593 246.400 C 395.859 244.310,396.318 242.060,396.613 241.400 C 397.484 239.450,397.995 237.128,397.998 235.116 C 398.002 231.785,398.842 227.200,399.449 227.200 C 399.912 227.200,400.000 222.875,400.000 200.200 C 400.000 177.593,399.911 173.200,399.451 173.200 C 398.917 173.200,398.345 169.761,397.849 163.554 C 397.750 162.318,397.311 160.518,396.873 159.554 C 396.436 158.589,395.875 156.090,395.627 154.000 C 395.325 151.452,394.923 149.852,394.408 149.142 C 393.985 148.561,393.523 147.121,393.381 145.942 C 393.003 142.810,392.417 140.748,391.615 139.728 C 391.225 139.233,390.785 137.756,390.637 136.447 C 390.489 135.138,390.044 133.647,389.648 133.134 C 388.789 132.020,388.000 129.835,388.000 128.571 C 388.000 128.071,387.567 127.147,387.038 126.518 C 386.489 125.866,385.953 124.561,385.792 123.484 C 385.622 122.356,385.065 121.037,384.407 120.209 C 383.802 119.447,383.190 118.096,383.047 117.206 C 382.905 116.317,382.453 115.253,382.043 114.843 C 381.632 114.432,380.997 113.196,380.632 112.095 C 380.266 110.995,379.614 109.775,379.183 109.385 C 378.753 108.995,378.400 108.332,378.400 107.912 C 378.400 106.974,377.780 105.760,376.541 104.269 C 376.023 103.647,375.600 102.854,375.600 102.507 C 375.600 102.160,375.166 101.307,374.637 100.612 C 374.107 99.918,373.395 98.683,373.055 97.869 C 372.714 97.055,372.169 96.286,371.843 96.161 C 371.516 96.036,371.143 95.453,371.014 94.867 C 370.886 94.280,370.155 93.010,369.390 92.044 C 368.626 91.078,368.000 90.075,368.000 89.816 C 368.000 89.556,367.550 88.953,367.000 88.475 C 366.450 87.997,366.000 87.367,366.000 87.075 C 366.000 86.783,365.370 85.808,364.600 84.908 C 363.830 84.009,363.200 83.090,363.200 82.865 C 363.200 82.641,362.750 82.104,362.200 81.671 C 361.650 81.239,361.200 80.726,361.200 80.532 C 361.200 79.973,356.493 73.739,354.775 72.024 C 354.212 71.461,353.632 70.683,353.487 70.297 C 353.341 69.910,352.781 69.392,352.242 69.146 C 351.703 68.901,351.163 68.305,351.042 67.823 C 350.921 67.341,350.367 66.703,349.811 66.406 C 349.255 66.108,348.800 65.670,348.800 65.433 C 348.800 65.195,348.246 64.460,347.569 63.800 C 346.893 63.140,344.328 60.566,341.869 58.079 C 335.316 51.451,335.046 51.199,334.500 51.200 C 334.225 51.200,334.000 51.007,334.000 50.771 C 334.000 50.161,333.111 49.353,332.081 49.026 C 331.597 48.872,331.200 48.486,331.200 48.167 C 331.200 47.849,330.646 47.252,329.970 46.840 C 329.293 46.429,328.473 45.711,328.147 45.246 C 327.821 44.781,327.308 44.400,327.006 44.400 C 326.705 44.400,326.130 43.983,325.729 43.474 C 325.328 42.965,324.460 42.208,323.800 41.792 C 323.140 41.376,322.009 40.532,321.286 39.918 C 320.563 39.303,319.708 38.800,319.386 38.800 C 319.064 38.800,318.800 38.560,318.800 38.268 C 318.800 37.975,318.305 37.483,317.700 37.175 C 317.095 36.867,315.893 36.026,315.028 35.307 C 314.163 34.588,313.250 34.000,312.998 34.000 C 312.746 34.000,312.117 33.550,311.600 33.000 C 311.083 32.450,310.406 32.000,310.094 32.000 C 309.782 32.000,308.791 31.370,307.892 30.600 C 306.992 29.830,305.936 29.200,305.544 29.200 C 305.153 29.200,304.420 28.778,303.916 28.263 C 303.412 27.747,302.370 27.082,301.600 26.785 C 300.830 26.487,299.919 25.931,299.576 25.549 C 299.233 25.166,298.423 24.728,297.776 24.575 C 297.129 24.422,296.150 23.892,295.600 23.397 C 295.050 22.902,293.880 22.273,293.000 21.999 C 292.120 21.725,291.031 21.166,290.579 20.755 C 290.128 20.345,288.930 19.760,287.917 19.455 C 286.904 19.150,285.682 18.535,285.203 18.088 C 284.723 17.642,283.671 17.154,282.865 17.005 C 282.059 16.855,280.640 16.232,279.711 15.620 C 278.783 15.007,277.286 14.388,276.385 14.244 C 275.484 14.100,274.373 13.633,273.915 13.207 C 273.457 12.780,272.254 12.314,271.241 12.169 C 270.229 12.025,268.500 11.407,267.400 10.795 C 266.300 10.183,264.458 9.557,263.308 9.405 C 262.157 9.252,260.783 8.787,260.255 8.372 C 259.681 7.920,257.787 7.357,255.547 6.973 C 253.486 6.620,251.504 6.065,251.142 5.741 C 250.766 5.405,248.617 4.893,246.142 4.550 C 243.754 4.220,241.440 3.718,241.000 3.436 C 240.005 2.796,236.015 2.106,231.782 1.840 C 228.125 1.610,227.200 1.351,227.200 0.557 C 227.200 0.086,223.012 0.000,200.200 0.000 C 177.388 0.000,173.200 0.086,173.200 0.557 M183.400 39.568 C 180.769 39.744,177.898 40.212,176.258 40.732 C 174.750 41.209,172.770 41.601,171.858 41.603 C 169.191 41.608,165.128 42.378,163.400 43.205 C 162.520 43.627,160.720 44.083,159.400 44.218 C 156.855 44.480,154.986 45.029,154.000 45.803 C 153.670 46.063,152.100 46.499,150.510 46.772 C 148.921 47.045,147.210 47.592,146.709 47.986 C 146.208 48.380,144.775 48.915,143.523 49.174 C 142.272 49.434,140.805 49.995,140.264 50.421 C 139.722 50.847,138.375 51.405,137.269 51.660 C 136.164 51.915,134.768 52.546,134.167 53.062 C 133.567 53.578,132.752 54.000,132.357 54.000 C 131.314 54.000,129.479 54.881,128.902 55.658 C 128.628 56.027,127.711 56.446,126.864 56.589 C 125.998 56.736,124.762 57.363,124.037 58.025 C 123.330 58.671,122.426 59.200,122.030 59.200 C 121.634 59.200,120.631 59.740,119.800 60.400 C 118.969 61.060,118.069 61.600,117.800 61.600 C 117.531 61.600,116.631 62.140,115.800 62.800 C 114.969 63.460,114.062 64.000,113.783 64.000 C 113.504 64.000,112.547 64.585,111.657 65.300 C 109.716 66.859,107.921 68.072,105.913 69.181 C 105.096 69.633,104.234 70.362,103.999 70.801 C 103.764 71.241,103.321 71.600,103.015 71.600 C 102.709 71.600,102.127 72.021,101.721 72.536 C 101.316 73.052,100.538 73.708,99.992 73.996 C 99.447 74.284,98.640 74.853,98.200 75.261 C 97.760 75.670,95.780 77.390,93.800 79.083 C 89.111 83.095,83.358 88.849,79.285 93.600 C 77.494 95.690,75.688 97.760,75.274 98.200 C 74.859 98.640,74.284 99.447,73.996 99.992 C 73.708 100.538,73.052 101.316,72.536 101.721 C 72.021 102.127,71.600 102.709,71.600 103.015 C 71.600 103.321,71.251 103.759,70.824 103.987 C 70.398 104.215,69.559 105.302,68.961 106.401 C 68.362 107.500,67.734 108.400,67.563 108.400 C 67.393 108.400,67.141 108.756,67.003 109.191 C 66.865 109.626,66.133 110.723,65.376 111.629 C 64.619 112.535,64.000 113.504,64.000 113.783 C 64.000 114.062,63.460 114.969,62.800 115.800 C 62.140 116.631,61.600 117.531,61.600 117.800 C 61.600 118.069,61.060 118.969,60.400 119.800 C 59.740 120.631,59.200 121.634,59.200 122.030 C 59.200 122.426,58.671 123.330,58.025 124.037 C 57.363 124.762,56.736 125.998,56.589 126.864 C 56.446 127.711,56.027 128.628,55.658 128.902 C 54.881 129.479,54.000 131.314,54.000 132.357 C 54.000 132.752,53.578 133.567,53.062 134.167 C 52.546 134.768,51.918 136.150,51.667 137.239 C 51.415 138.328,50.849 139.710,50.408 140.310 C 49.968 140.909,49.392 142.479,49.129 143.797 C 48.866 145.115,48.342 146.525,47.964 146.931 C 47.587 147.336,47.052 148.863,46.776 150.325 C 46.500 151.787,45.876 153.797,45.388 154.792 C 44.900 155.786,44.386 157.766,44.247 159.191 C 44.107 160.617,43.631 162.507,43.189 163.391 C 42.714 164.343,42.216 166.551,41.969 168.800 C 41.740 170.890,41.068 174.670,40.476 177.200 L 39.400 181.800 39.425 200.400 C 39.448 216.947,39.529 219.287,40.163 221.600 C 41.016 224.713,41.425 227.015,41.970 231.754 C 42.195 233.709,42.624 235.689,42.924 236.154 C 43.626 237.244,44.400 240.371,44.400 242.118 C 44.400 242.867,44.817 244.273,45.326 245.240 C 45.835 246.208,46.479 248.289,46.756 249.865 C 47.072 251.661,47.541 252.985,48.013 253.411 C 48.429 253.789,48.882 254.919,49.028 255.946 C 49.306 257.900,50.290 260.400,50.782 260.400 C 50.941 260.400,51.306 261.373,51.591 262.562 C 51.876 263.751,52.512 265.193,53.004 265.766 C 53.496 266.338,54.016 267.537,54.158 268.431 C 54.302 269.325,54.841 270.477,55.358 270.995 C 55.876 271.512,56.416 272.561,56.560 273.325 C 56.703 274.090,57.356 275.389,58.010 276.213 C 58.665 277.036,59.200 278.047,59.200 278.459 C 59.200 278.870,59.729 279.761,60.376 280.437 C 61.022 281.114,61.669 282.205,61.813 282.861 C 61.958 283.517,62.333 284.153,62.648 284.274 C 62.963 284.395,63.671 285.445,64.221 286.608 C 64.771 287.771,65.487 288.824,65.811 288.949 C 66.135 289.073,66.400 289.444,66.400 289.774 C 66.400 290.103,66.915 290.963,67.545 291.686 C 68.174 292.409,68.990 293.587,69.357 294.304 C 69.725 295.022,70.380 295.830,70.813 296.101 C 71.246 296.371,71.600 296.812,71.600 297.080 C 71.600 297.348,72.052 298.070,72.605 298.684 C 73.737 299.941,75.914 302.579,78.000 305.224 C 78.770 306.200,79.985 307.581,80.700 308.292 C 81.415 309.004,82.000 309.739,82.000 309.925 C 82.000 310.112,82.450 310.506,83.000 310.800 C 83.550 311.094,84.000 311.455,84.000 311.602 C 84.000 311.859,86.756 314.731,88.262 316.043 C 88.668 316.396,89.293 317.026,89.652 317.443 C 90.457 318.379,92.880 320.544,95.198 322.400 C 96.160 323.170,97.611 324.385,98.422 325.100 C 99.233 325.815,100.079 326.400,100.302 326.400 C 100.526 326.400,101.003 326.850,101.363 327.400 C 101.724 327.950,102.262 328.400,102.560 328.400 C 102.858 328.400,103.349 328.700,103.651 329.066 C 104.190 329.721,107.072 331.746,109.930 333.479 C 110.728 333.963,111.566 334.612,111.792 334.921 C 112.018 335.230,112.608 335.612,113.104 335.769 C 113.599 335.927,114.510 336.481,115.129 337.002 C 115.747 337.522,116.993 338.244,117.896 338.605 C 118.799 338.966,119.630 339.500,119.741 339.791 C 119.853 340.082,120.632 340.544,121.472 340.818 C 122.312 341.092,123.478 341.714,124.063 342.201 C 124.648 342.688,125.953 343.295,126.963 343.549 C 127.973 343.803,128.800 344.184,128.800 344.395 C 128.800 344.906,130.667 345.822,132.364 346.146 C 133.115 346.289,133.967 346.746,134.258 347.161 C 134.549 347.577,135.735 348.144,136.894 348.421 C 138.052 348.698,139.630 349.334,140.400 349.834 C 141.170 350.334,142.700 350.867,143.800 351.019 C 144.900 351.171,146.160 351.621,146.600 352.019 C 147.365 352.711,149.248 353.278,152.500 353.797 C 153.325 353.929,154.000 354.194,154.000 354.387 C 154.000 354.878,156.078 355.473,159.600 355.991 C 161.250 356.234,163.342 356.790,164.249 357.227 C 165.303 357.735,167.395 358.158,170.049 358.398 C 172.332 358.605,175.460 359.146,177.000 359.600 C 183.550 361.530,216.542 361.397,223.979 359.410 C 226.057 358.854,228.723 358.400,229.902 358.400 C 232.284 358.400,235.375 357.737,236.600 356.963 C 237.040 356.686,238.930 356.240,240.800 355.973 C 242.670 355.706,244.795 355.153,245.521 354.744 C 246.248 354.336,248.138 353.732,249.721 353.402 C 251.305 353.072,253.058 352.464,253.617 352.050 C 254.177 351.637,255.437 351.169,256.417 351.011 C 257.398 350.853,258.920 350.309,259.800 349.804 C 260.680 349.298,262.205 348.667,263.189 348.403 C 264.173 348.138,265.492 347.489,266.120 346.961 C 266.748 346.432,267.747 346.000,268.340 346.000 C 268.933 346.000,270.043 345.487,270.809 344.859 C 271.574 344.232,272.857 343.597,273.660 343.449 C 274.463 343.300,275.363 342.884,275.660 342.524 C 275.957 342.164,277.010 341.514,278.000 341.078 C 278.990 340.642,280.309 339.862,280.931 339.343 C 281.553 338.824,282.318 338.400,282.631 338.400 C 285.631 338.400,285.112 332.716,281.868 330.051 C 281.501 329.749,281.200 329.267,281.200 328.980 C 281.200 328.693,280.750 328.104,280.200 327.671 C 279.650 327.239,279.200 326.692,279.200 326.456 C 279.200 326.221,278.693 325.437,278.073 324.714 C 277.454 323.991,276.539 322.725,276.041 321.900 C 275.542 321.075,275.000 320.400,274.835 320.400 C 274.670 320.400,274.280 319.905,273.968 319.300 C 273.655 318.695,272.995 317.872,272.500 317.471 C 272.005 317.070,271.600 316.510,271.600 316.226 C 271.600 315.941,271.190 315.280,270.688 314.755 C 270.187 314.230,269.285 313.035,268.683 312.100 C 268.081 311.165,267.445 310.400,267.268 310.400 C 267.092 310.400,266.648 309.770,266.281 309.000 C 265.913 308.230,265.435 307.600,265.217 307.600 C 264.999 307.600,264.535 307.047,264.185 306.372 C 263.836 305.696,262.706 304.059,261.675 302.733 C 260.644 301.407,259.387 299.701,258.882 298.941 C 258.377 298.182,257.702 297.460,257.382 297.338 C 257.062 297.215,256.800 296.864,256.800 296.558 C 256.800 296.253,256.194 295.327,255.453 294.501 C 254.712 293.676,253.979 292.590,253.823 292.089 C 253.667 291.588,253.116 290.902,252.600 290.563 C 252.083 290.224,251.476 289.419,251.251 288.774 C 251.026 288.128,250.576 287.600,250.252 287.600 C 249.927 287.600,249.454 286.970,249.200 286.200 C 248.946 285.430,248.527 284.797,248.269 284.794 C 247.998 284.790,248.053 284.624,248.400 284.400 C 248.767 284.163,256.888 284.010,269.310 284.006 L 289.620 284.000 290.017 285.045 C 290.235 285.619,291.041 286.822,291.807 287.717 C 292.573 288.612,293.200 289.561,293.200 289.826 C 293.200 290.091,293.650 290.603,294.200 290.963 C 294.750 291.324,295.200 291.871,295.200 292.180 C 295.200 292.489,295.650 293.096,296.200 293.529 C 296.750 293.961,297.200 294.508,297.200 294.744 C 297.200 294.979,297.707 295.763,298.327 296.486 C 298.946 297.209,299.861 298.475,300.359 299.300 C 300.858 300.125,301.433 300.800,301.639 300.800 C 301.845 300.800,302.312 301.428,302.679 302.196 C 303.045 302.964,303.672 303.696,304.072 303.823 C 304.472 303.950,304.800 304.368,304.800 304.752 C 304.800 305.135,305.132 305.806,305.539 306.242 C 306.412 307.179,308.928 310.545,309.908 312.085 C 311.475 314.550,313.859 314.343,316.493 311.514 C 318.388 309.480,322.375 304.982,323.443 303.673 C 323.860 303.163,324.695 302.186,325.300 301.501 C 325.905 300.816,326.400 300.089,326.400 299.886 C 326.400 299.682,326.850 299.161,327.400 298.729 C 327.950 298.296,328.400 297.717,328.400 297.443 C 328.400 297.169,328.842 296.560,329.383 296.090 C 329.924 295.620,330.741 294.552,331.199 293.717 C 332.239 291.824,333.703 289.736,335.003 288.293 C 335.551 287.684,336.005 286.964,336.011 286.693 C 336.017 286.422,336.557 285.493,337.211 284.629 C 337.865 283.765,338.400 282.833,338.400 282.559 C 338.400 282.286,338.824 281.553,339.343 280.931 C 339.862 280.309,340.642 278.990,341.078 278.000 C 341.514 277.010,342.164 275.957,342.524 275.660 C 342.884 275.363,343.299 274.463,343.446 273.660 C 343.594 272.857,344.228 271.609,344.857 270.886 C 345.547 270.093,346.000 269.115,346.000 268.417 C 346.000 267.781,346.432 266.748,346.961 266.120 C 347.489 265.492,348.138 264.173,348.403 263.189 C 348.667 262.205,349.298 260.680,349.804 259.800 C 350.309 258.920,350.853 257.398,351.011 256.417 C 351.169 255.437,351.637 254.177,352.050 253.617 C 352.464 253.058,353.072 251.305,353.402 249.721 C 353.732 248.138,354.336 246.248,354.744 245.521 C 355.153 244.795,355.708 242.670,355.979 240.800 C 356.249 238.930,356.648 237.185,356.865 236.923 C 357.551 236.094,358.390 232.287,358.395 229.982 C 358.398 228.762,358.866 225.972,359.436 223.782 C 361.395 216.256,361.508 183.500,359.597 177.000 C 359.145 175.460,358.605 172.332,358.398 170.049 C 358.158 167.395,357.735 165.303,357.227 164.249 C 356.790 163.342,356.234 161.250,355.991 159.600 C 355.473 156.078,354.878 154.000,354.387 154.000 C 354.194 154.000,353.929 153.325,353.797 152.500 C 353.278 149.248,352.711 147.365,352.019 146.600 C 351.621 146.160,351.171 144.900,351.018 143.800 C 350.866 142.700,350.324 141.170,349.814 140.400 C 349.304 139.630,348.669 138.052,348.402 136.894 C 348.131 135.716,347.584 134.554,347.161 134.258 C 346.746 133.967,346.289 133.115,346.146 132.364 C 345.831 130.711,345.061 129.115,344.258 128.448 C 343.930 128.176,343.546 127.266,343.404 126.426 C 343.258 125.559,342.734 124.539,342.194 124.070 C 341.671 123.614,341.043 122.503,340.800 121.600 C 340.557 120.698,340.111 119.864,339.810 119.749 C 339.509 119.633,338.966 118.799,338.605 117.896 C 338.244 116.993,337.522 115.747,337.002 115.129 C 336.481 114.510,335.927 113.599,335.769 113.104 C 335.612 112.608,335.230 112.018,334.921 111.792 C 334.612 111.566,333.963 110.728,333.479 109.930 C 331.746 107.072,329.721 104.190,329.066 103.651 C 328.700 103.349,328.400 102.906,328.400 102.666 C 328.400 102.426,327.933 101.773,327.363 101.215 C 326.793 100.657,325.484 99.120,324.455 97.800 C 321.200 93.625,318.743 90.771,317.443 89.652 C 317.026 89.293,316.396 88.668,316.043 88.262 C 314.731 86.756,311.859 84.000,311.602 84.000 C 311.455 84.000,311.094 83.550,310.800 83.000 C 310.506 82.450,310.128 82.000,309.961 82.000 C 309.794 82.000,308.789 81.165,307.729 80.145 C 305.998 78.480,303.590 76.510,300.463 74.200 C 299.867 73.760,298.946 72.995,298.415 72.500 C 297.884 72.005,297.232 71.600,296.967 71.600 C 296.702 71.600,296.387 71.342,296.266 71.027 C 296.061 70.494,292.895 68.195,290.430 66.790 C 289.841 66.454,288.934 65.783,288.414 65.299 C 287.895 64.815,286.867 64.220,286.132 63.977 C 285.396 63.735,284.617 63.205,284.400 62.800 C 284.184 62.396,283.480 61.949,282.837 61.808 C 282.194 61.667,281.114 61.022,280.437 60.376 C 279.761 59.729,278.870 59.200,278.459 59.200 C 278.047 59.200,277.056 58.680,276.256 58.045 C 275.457 57.409,274.172 56.771,273.401 56.627 C 272.631 56.482,271.562 55.926,271.027 55.391 C 270.479 54.842,269.346 54.305,268.431 54.158 C 267.537 54.016,266.338 53.496,265.766 53.004 C 265.193 52.512,263.751 51.876,262.562 51.591 C 261.373 51.306,260.400 50.941,260.400 50.782 C 260.400 50.304,257.927 49.318,256.004 49.030 C 255.017 48.881,253.847 48.423,253.404 48.010 C 252.934 47.572,251.291 47.014,249.447 46.668 C 247.713 46.343,246.179 45.889,246.038 45.661 C 245.768 45.224,243.923 44.747,239.600 43.994 C 238.170 43.745,236.613 43.292,236.140 42.988 C 235.668 42.684,233.688 42.236,231.740 41.994 C 226.659 41.361,224.494 40.967,222.000 40.217 C 219.512 39.469,191.818 39.003,183.400 39.568 M85.100 169.852 C 86.095 170.119,86.342 171.813,85.592 173.216 C 84.891 174.524,84.382 177.986,84.031 183.832 C 83.795 187.749,83.442 190.186,82.870 191.832 C 82.272 193.554,81.887 196.382,81.458 202.200 C 80.741 211.944,81.116 214.658,83.401 216.263 C 83.978 216.669,84.970 217.414,85.605 217.919 C 88.236 220.012,97.590 219.937,99.263 217.810 C 99.700 217.255,100.311 216.800,100.620 216.800 C 100.929 216.800,101.487 216.305,101.861 215.700 C 102.235 215.095,103.025 213.840,103.617 212.912 C 104.225 211.958,104.814 210.315,104.970 209.138 C 105.123 207.991,105.582 206.318,105.991 205.419 C 106.760 203.733,107.587 197.780,107.618 193.716 C 107.627 192.442,107.913 190.680,108.252 189.800 C 109.106 187.585,109.462 185.176,109.982 178.085 C 110.463 171.533,110.813 170.198,112.149 169.839 C 113.499 169.477,123.342 169.576,123.945 169.958 C 124.789 170.492,123.733 182.226,122.411 187.000 C 122.167 187.880,121.710 191.725,121.395 195.545 C 121.080 199.366,120.655 202.696,120.451 202.945 C 120.015 203.478,118.800 209.728,118.800 211.434 C 118.800 212.079,118.378 213.415,117.863 214.403 C 117.348 215.391,116.698 217.042,116.419 218.072 C 116.140 219.101,115.482 220.347,114.956 220.841 C 114.430 221.335,114.000 221.948,114.000 222.202 C 114.000 222.810,108.228 228.400,107.600 228.400 C 107.334 228.400,106.613 228.823,105.998 229.340 C 105.358 229.879,103.856 230.482,102.478 230.753 C 101.157 231.013,99.625 231.580,99.075 232.013 C 97.610 233.165,85.147 233.218,84.323 232.076 C 83.985 231.607,82.772 231.160,80.890 230.809 C 78.903 230.440,77.588 229.939,76.748 229.234 C 74.814 227.610,70.000 222.713,70.000 222.371 C 70.000 222.201,69.571 221.551,69.046 220.927 C 66.753 218.203,66.568 199.007,68.777 193.000 C 69.187 191.883,69.629 189.234,69.778 187.000 C 70.155 181.316,70.755 177.353,71.636 174.713 C 72.056 173.455,72.400 171.895,72.400 171.246 C 72.400 170.597,72.625 169.976,72.900 169.865 C 73.617 169.575,84.027 169.564,85.100 169.852 M173.764 170.700 C 174.393 171.195,175.289 171.608,175.754 171.618 C 177.175 171.647,180.445 172.626,180.745 173.111 C 180.901 173.363,181.879 173.945,182.918 174.405 C 183.958 174.865,185.079 175.654,185.410 176.159 C 185.741 176.664,186.459 177.281,187.006 177.530 C 187.553 177.779,188.000 178.253,188.000 178.582 C 188.000 178.912,188.460 179.483,189.023 179.852 C 189.586 180.221,190.403 181.222,190.840 182.078 C 191.276 182.933,191.961 183.961,192.362 184.362 C 192.763 184.763,193.218 185.790,193.374 186.645 C 193.529 187.500,194.139 189.190,194.728 190.400 C 195.753 192.506,195.799 192.875,195.800 199.000 L 195.800 205.400 171.361 205.600 C 145.514 205.812,145.600 205.805,145.600 207.629 C 145.600 209.888,146.557 212.530,147.839 213.812 C 148.587 214.561,149.200 215.331,149.200 215.524 C 149.200 215.716,149.872 216.217,150.694 216.637 C 151.516 217.057,152.422 217.618,152.707 217.885 C 155.117 220.134,168.566 220.027,171.331 217.737 C 171.953 217.221,172.782 216.800,173.175 216.800 C 173.567 216.800,174.551 216.350,175.362 215.800 C 177.135 214.596,177.756 214.556,178.777 215.577 C 179.204 216.004,180.329 216.585,181.277 216.866 C 182.225 217.148,183.270 217.686,183.600 218.061 C 183.930 218.437,185.010 219.008,186.000 219.329 C 188.275 220.068,188.890 222.412,187.032 223.258 C 186.473 223.513,185.910 224.054,185.781 224.460 C 185.652 224.866,185.104 225.309,184.564 225.445 C 184.024 225.580,183.361 226.004,183.091 226.386 C 182.536 227.172,180.330 228.400,179.474 228.400 C 179.163 228.400,178.428 228.778,177.841 229.239 C 176.724 230.118,173.054 231.161,170.996 231.186 C 170.237 231.195,169.608 231.495,169.293 232.000 C 168.824 232.751,168.360 232.800,161.659 232.800 C 155.032 232.800,154.472 232.743,153.800 232.000 C 153.402 231.560,152.573 231.200,151.958 231.200 C 150.329 231.200,146.379 230.104,145.638 229.446 C 145.287 229.134,144.343 228.609,143.541 228.277 C 141.547 227.454,135.744 221.470,134.545 219.000 C 134.011 217.900,133.323 216.550,133.017 216.000 C 130.786 211.990,131.354 194.967,133.841 191.301 C 134.369 190.524,134.800 189.495,134.800 189.013 C 134.800 188.532,135.792 186.892,137.005 185.369 C 138.217 183.846,139.585 182.015,140.044 181.300 C 140.503 180.585,141.038 180.000,141.232 180.000 C 141.427 180.000,142.234 179.370,143.027 178.600 C 143.820 177.830,144.596 177.200,144.751 177.200 C 144.906 177.200,145.701 176.570,146.518 175.800 C 147.334 175.030,148.299 174.400,148.663 174.400 C 149.027 174.400,149.908 173.955,150.621 173.411 C 151.985 172.371,154.506 171.626,156.718 171.610 C 157.596 171.603,158.384 171.252,159.077 170.559 L 160.118 169.519 166.369 169.659 C 172.131 169.789,172.710 169.870,173.764 170.700 M226.700 169.852 C 227.695 170.119,227.942 171.813,227.192 173.216 C 226.484 174.537,225.984 178.001,225.605 184.200 C 225.344 188.467,225.040 190.597,224.552 191.575 C 223.799 193.086,222.833 202.278,222.742 208.800 C 222.683 213.079,223.258 214.952,225.024 216.224 C 225.616 216.651,226.612 217.416,227.237 217.924 C 229.700 219.928,239.310 219.964,240.703 217.975 C 241.021 217.521,241.704 216.989,242.221 216.792 C 242.738 216.595,243.461 215.842,243.828 215.117 C 244.194 214.393,244.828 213.433,245.237 212.984 C 245.647 212.535,246.241 210.829,246.561 209.184 C 246.880 207.543,247.464 205.570,247.859 204.800 C 248.387 203.771,248.668 201.862,248.922 197.600 C 249.112 194.410,249.535 190.990,249.863 190.000 C 250.727 187.393,251.077 184.963,251.582 178.085 C 252.063 171.533,252.413 170.198,253.749 169.839 C 255.099 169.477,264.942 169.576,265.545 169.958 C 266.389 170.492,265.333 182.226,264.011 187.000 C 263.767 187.880,263.312 191.704,262.999 195.499 C 262.686 199.293,262.242 202.748,262.012 203.177 C 261.501 204.132,260.400 209.750,260.400 211.403 C 260.400 212.065,259.978 213.415,259.463 214.403 C 258.948 215.391,258.298 217.042,258.019 218.072 C 257.740 219.101,257.082 220.347,256.556 220.841 C 256.030 221.335,255.600 221.948,255.600 222.202 C 255.600 222.810,249.828 228.400,249.200 228.400 C 248.934 228.400,248.213 228.823,247.598 229.340 C 246.958 229.879,245.456 230.482,244.078 230.753 C 242.757 231.013,241.225 231.580,240.675 232.013 C 239.210 233.165,226.747 233.218,225.923 232.076 C 225.586 231.608,224.377 231.161,222.519 230.815 C 220.382 230.417,219.253 229.959,218.147 229.039 C 216.133 227.366,211.600 222.745,211.600 222.366 C 211.600 222.198,211.151 221.527,210.602 220.875 C 208.661 218.568,208.382 197.795,210.232 193.395 C 210.914 191.775,211.296 189.183,211.980 181.546 C 212.189 179.206,212.730 176.197,213.180 174.858 C 213.631 173.520,214.000 171.895,214.000 171.246 C 214.000 170.597,214.225 169.976,214.500 169.865 C 215.217 169.575,225.627 169.564,226.700 169.852 M315.364 170.700 C 315.993 171.195,316.889 171.608,317.354 171.618 C 318.775 171.647,322.045 172.626,322.345 173.111 C 322.501 173.363,323.342 173.860,324.214 174.216 C 325.624 174.792,326.371 175.388,329.090 178.112 C 331.352 180.378,331.975 181.137,332.607 182.400 C 332.993 183.170,333.542 183.937,333.827 184.105 C 334.113 184.272,334.633 185.442,334.985 186.705 C 335.336 187.967,336.023 189.810,336.512 190.800 C 337.317 192.433,337.400 193.195,337.400 199.000 L 337.400 205.400 312.961 205.600 C 287.114 205.812,287.200 205.805,287.200 207.629 C 287.200 209.888,288.157 212.530,289.439 213.812 C 290.187 214.561,290.800 215.339,290.800 215.541 C 290.800 215.743,291.471 216.227,292.290 216.616 C 293.110 217.005,294.016 217.559,294.304 217.846 C 296.587 220.130,310.138 220.050,312.931 217.737 C 313.553 217.221,314.382 216.800,314.775 216.800 C 315.167 216.800,316.138 216.359,316.932 215.820 C 318.879 214.499,319.260 214.460,320.279 215.479 C 320.760 215.960,321.929 216.582,322.877 216.860 C 323.825 217.138,324.820 217.667,325.090 218.036 C 325.359 218.404,326.415 218.952,327.437 219.253 C 330.146 220.051,330.937 222.315,328.813 223.194 C 328.161 223.465,327.519 224.026,327.387 224.442 C 327.255 224.858,326.704 225.309,326.164 225.445 C 325.624 225.580,324.961 226.004,324.691 226.386 C 324.136 227.172,321.930 228.400,321.074 228.400 C 320.763 228.400,320.028 228.778,319.441 229.239 C 318.324 230.118,314.654 231.161,312.596 231.186 C 311.837 231.195,311.208 231.495,310.893 232.000 C 310.424 232.751,309.960 232.800,303.259 232.800 C 296.632 232.800,296.072 232.743,295.400 232.000 C 295.002 231.560,294.173 231.200,293.558 231.200 C 291.929 231.200,287.979 230.104,287.238 229.446 C 286.887 229.134,285.943 228.609,285.141 228.277 C 283.147 227.454,277.344 221.470,276.145 219.000 C 275.611 217.900,274.923 216.550,274.617 216.000 C 272.386 211.990,272.954 194.967,275.441 191.301 C 275.969 190.524,276.400 189.504,276.400 189.033 C 276.400 188.136,279.771 183.382,282.312 180.695 C 283.296 179.654,286.143 177.200,286.366 177.200 C 286.513 177.200,287.301 176.570,288.118 175.800 C 288.934 175.030,289.899 174.400,290.263 174.400 C 290.627 174.400,291.508 173.955,292.221 173.411 C 293.585 172.371,296.106 171.626,298.318 171.610 C 299.196 171.603,299.984 171.252,300.677 170.559 L 301.718 169.519 307.969 169.659 C 313.731 169.789,314.310 169.870,315.364 170.700 M158.600 183.682 C 157.940 183.913,157.040 184.418,156.600 184.805 C 156.160 185.192,155.360 185.642,154.822 185.806 C 151.406 186.846,147.711 191.566,148.768 193.541 C 149.471 194.853,178.462 194.896,180.125 193.587 L 181.159 192.775 180.200 191.287 C 178.867 189.221,175.903 186.000,175.334 186.000 C 175.074 186.000,174.335 185.557,173.692 185.016 C 171.676 183.320,162.067 182.471,158.600 183.682 M300.200 183.682 C 299.540 183.913,298.640 184.418,298.200 184.805 C 297.760 185.192,296.960 185.642,296.422 185.806 C 293.006 186.846,289.311 191.566,290.368 193.541 C 291.071 194.853,320.062 194.896,321.725 193.587 L 322.759 192.775 321.800 191.287 C 320.467 189.221,317.503 186.000,316.934 186.000 C 316.674 186.000,315.935 185.557,315.292 185.016 C 313.276 183.320,303.667 182.471,300.200 183.682 " stroke="none" fill="#8088ff" fill-rule="evenodd"></path></g></svg>